<svg width="37" height="35" fill="none" xmlns="http://www.w3.org/2000/svg"><rect x=".993" y=".996" width="36" height="34" rx="11" fill="url(#paint0_linear)"/><g clip-path="url(#clip0)"><path d="M19.024 19.794l-4.862-2.314 4.862-8.484 4.862 8.484-4.862 2.314z" fill="#828384"/><path d="M19.024 8.996v10.798l4.862-2.314-4.862-8.484z" fill="#4F4F4F"/><path d="M19.024 27.443l-5.03-8.832 5.03 2.404 5.031-2.404-5.031 8.832z" fill="#828384"/><path d="M19.024 15.303l-4.862 2.177 4.862 2.313 4.862-2.313-4.862-2.177z" fill="#141414"/><path d="M23.886 17.48l-4.862-2.177v4.49l4.862-2.313z" fill="#141414"/><path d="M24.055 18.61l-5.031 2.405v6.428l5.031-8.832z" fill="#4F4F4F"/></g><defs><linearGradient id="paint0_linear" x1="18.993" y1=".996" x2="18.993" y2="34.996" gradientUnits="userSpaceOnUse"><stop stop-color="#ECEFF0"/><stop offset="1" stop-color="#E7E9EA"/></linearGradient><clipPath id="clip0"><path fill="#fff" transform="translate(13.993 8.996)" d="M0 0h10.062v18.447H0z"/></clipPath></defs></svg>