<svg width="36" height="35" fill="none" xmlns="http://www.w3.org/2000/svg"><rect y=".996" width="36" height="34" rx="11" fill="url(#paint0_linear)"/><path d="M7.56 23.702l1.288-.21V13.3l-1.288-.196v-.308h4.396c1.381 0 2.408.294 3.08.882.672.588 1.008 1.438 1.008 2.548s-.336 1.96-1.008 2.548c-.672.588-1.699.882-3.08.882h-1.568v3.836l1.288.21v.294H7.56v-.294zm4.2-4.382c1.727 0 2.59-.938 2.59-2.814v-.56c0-1.867-.863-2.8-2.59-2.8h-1.372v6.174h1.372zm11.194 4.816L18.782 13.3v9.842l1.344.56v.294H17.13v-.294l1.316-.56V13.3l-1.288-.196v-.308h3.094l3.514 8.988 3.584-8.988h2.828v.308l-1.288.196v10.192l1.288.21v.294h-4.116v-.294l1.288-.21V13.72l-4.144 10.416h-.252z" fill="#fff"/><defs><linearGradient id="paint0_linear" x1="13" y1=".996" x2="36" y2="34.996" gradientUnits="userSpaceOnUse"><stop stop-color="#FA5645"/><stop offset="1" stop-color="#C61908"/></linearGradient></defs></svg>