<svg width="36" height="34" fill="none" xmlns="http://www.w3.org/2000/svg"><rect width="36" height="34" rx="11" fill="url(#paint0_linear)"/><g clip-path="url(#clip0)"><path d="M21.207 8H18.7c-2.541 0-5.105 1.913-5.105 6.188 0 2.214.92 3.938 2.607 4.919l-3.087 5.698a.83.83 0 00-.01.817.76.76 0 00.668.378h1.561c.355 0 .632-.175.764-.481l2.896-5.774h.211v5.535c0 .39.323.72.705.72h1.364c.429 0 .728-.305.728-.742V8.788c0-.464-.327-.788-.794-.788zm-2.003 9.18h-.373c-1.445 0-2.308-1.202-2.308-3.217 0-2.505 1.09-3.398 2.11-3.398h.57v6.615z" fill="#D7143A"/></g><defs><linearGradient id="paint0_linear" x1="18" y1="0" x2="18" y2="34" gradientUnits="userSpaceOnUse"><stop stop-color="#fff"/><stop offset="1" stop-color="#fff"/></linearGradient><clipPath id="clip0"><path fill="#fff" transform="translate(13 8)" d="M0 0h9v18H0z"/></clipPath></defs></svg>