<svg width="36" height="34" fill="none" xmlns="http://www.w3.org/2000/svg"><rect width="36" height="34" rx="11" fill="#3C80AD"/><g clip-path="url(#clip0)"><path d="M20.745 17c0 3.868-3.076 7-6.873 7C10.076 24 7 20.867 7 17c0-3.865 3.077-7 6.872-7 3.796 0 6.873 3.134 6.873 7z" fill="#E2574C"/><path d="M22.126 10c-1.541 0-2.96.523-4.107 1.396h.005c.226.222.475.378.667.634l-1.43.023c-.224.23-.428.48-.62.742h2.521c.192.234.37.438.53.697h-3.509a7.004 7.004 0 00-.351.698h4.259c.111.24.211.421.296.675h-4.808a6.94 6.94 0 00-.191.741h5.2c.051.242.09.466.117.694h-5.42c-.022.23-.034.464-.034.7h5.493c0 .248-.017.478-.042.7h-5.418c.024.238.058.471.104.7h5.191a8.337 8.337 0 01-.192.693h-4.824c.073.24.162.472.259.698h4.269c-.118.255-.253.459-.4.697h-3.52c.138.245.292.48.458.703l2.532.038c-.215.264-.493.423-.745.654.014.012-.403-.001-1.225-.014A6.79 6.79 0 0022.126 24C25.923 24 29 20.867 29 17s-3.077-7-6.874-7z" fill="#F4B459"/></g><defs><clipPath id="clip0"><path fill="#fff" transform="translate(7 10)" d="M0 0h22v14H0z"/></clipPath></defs></svg>