<svg width="36" height="35" fill="none" xmlns="http://www.w3.org/2000/svg"><rect y=".996" width="36" height="34" rx="11" fill="url(#paint0_linear)"/><path d="M24.082 18.794c-.405-.503-1.015-.85-1.83-1.038 1.039-.51 1.495-1.377 1.37-2.6a2.506 2.506 0 00-.382-1.154 2.362 2.362 0 00-.863-.786 4.863 4.863 0 00-1.182-.453 9.646 9.646 0 00-1.465-.227v-2.54h-1.61v2.47c-.28 0-.704.006-1.276.02v-2.49h-1.612v2.54c-.23.007-.568.01-1.014.01L12 12.536v1.653h1.161c.53 0 .84.228.931.685v2.892c.07 0 .126.004.167.01h-.167v4.052c-.056.342-.258.514-.607.514h-1.16L12 24.187h2.092c.133 0 .324.001.575.004.251.004.44.005.565.005v2.57h1.611v-2.54c.293.007.718.01 1.276.01v2.53h1.611v-2.57c.572-.027 1.08-.077 1.522-.15.443-.075.867-.19 1.271-.349a3.454 3.454 0 001.015-.59c.272-.235.497-.534.675-.896.177-.363.29-.783.34-1.26.09-.934-.067-1.653-.471-2.157zM16.875 14.3a48.786 48.786 0 00.978-.015c.15-.003.352.005.607.025.254.02.469.047.643.08.174.034.366.09.575.167.21.077.377.171.502.282.126.11.232.252.32.423.087.171.13.368.13.59 0 .188-.031.359-.094.514a.968.968 0 01-.282.388 2.863 2.863 0 01-.388.272 1.78 1.78 0 01-.507.186c-.206.047-.385.084-.539.111a4.571 4.571 0 01-.575.056 12.106 12.106 0 01-1.01.02 43.26 43.26 0 00-.36-.005V14.3zm4.399 6.864a1.432 1.432 0 01-.257.403 1.45 1.45 0 01-.413.302 3.51 3.51 0 01-.497.212c-.16.054-.354.1-.58.141a7.955 7.955 0 01-1.208.126 14.15 14.15 0 01-1.057.01 35.042 35.042 0 00-.387-.005v-3.407c.055 0 .221-.003.497-.01a11.807 11.807 0 011.397.02c.306.02.564.05.774.09.209.041.437.103.685.187.248.084.448.187.601.308.154.12.283.275.387.463a1.3 1.3 0 01.158.645c-.001.189-.034.36-.1.515z" fill="#fff"/><defs><linearGradient id="paint0_linear" x1="8" y1="2.996" x2="28" y2="34.996" gradientUnits="userSpaceOnUse"><stop stop-color="#FFA131"/><stop offset="1" stop-color="#D67B0E"/></linearGradient></defs></svg>