<svg width="36" height="34" fill="none" xmlns="http://www.w3.org/2000/svg"><rect width="36" height="34" rx="11" fill="#47C84D"/><path d="M23.947 15.627c-.52-.382-1.2-.559-2.036-.53.871-.761 1.088-1.717.65-2.866a2.507 2.507 0 00-.667-1.015 2.361 2.361 0 00-1.037-.536 4.866 4.866 0 00-1.26-.132 9.76 9.76 0 00-1.473.16l-.657-2.453-1.556.416.64 2.386c-.27.072-.68.188-1.228.35l-.644-2.405-1.557.417.658 2.453c-.221.066-.547.157-.978.273l-2.145.564.428 1.596 1.122-.3c.512-.138.87.003 1.076.42l.749 2.794c.067-.018.122-.029.164-.033l-.162.043 1.05 3.913c.034.346-.117.564-.454.654l-1.122.3.165 1.866 2.02-.541.557-.145c.244-.061.426-.109.547-.141l.665 2.482 1.557-.417-.658-2.453c.285-.069.697-.176 1.235-.32l.655 2.443 1.556-.417-.665-2.482a12.993 12.993 0 001.431-.54 6.364 6.364 0 001.138-.665c.35-.257.625-.535.827-.832.202-.298.342-.645.42-1.041.078-.397.078-.832.002-1.305-.154-.926-.492-1.58-1.013-1.961zm-8.125-2.477a47.615 47.615 0 00.941-.268c.144-.042.342-.086.593-.133.251-.046.465-.076.642-.088.177-.013.377-.01.599.011.222.02.408.068.558.143.15.074.289.183.418.326.128.143.221.322.278.536.05.181.063.355.043.52a.967.967 0 01-.173.449 2.861 2.861 0 01-.303.363 1.806 1.806 0 01-.442.311c-.187.099-.35.18-.492.247a4.565 4.565 0 01-.541.202 12.342 12.342 0 01-.97.28c-.2.051-.317.08-.35.09l-.8-2.989zm6.026 5.491a1.427 1.427 0 01-.143.456 1.45 1.45 0 01-.321.399c-.143.129-.284.24-.425.333a4.131 4.131 0 01-.524.287 7.925 7.925 0 01-1.135.434 14.343 14.343 0 01-1.018.283c-.196.05-.321.081-.375.096l-.882-3.291a27.2 27.2 0 00.477-.139c.265-.077.481-.139.65-.184.168-.045.403-.098.705-.157.301-.06.558-.098.771-.114.212-.015.45-.014.71.003.261.017.481.064.66.142.18.077.345.192.494.347.15.155.257.349.32.582.047.183.06.357.036.523z" fill="#F7F7F7"/></svg>