<svg width="130" height="130" fill="none" xmlns="http://www.w3.org/2000/svg"><rect width="130" height="130" rx="18" fill="url(#paint0_linear)"/><g filter="url(#filter0_d)"><rect x="28" y="27" width="76" height="83" rx="4" fill="#8400E4"/></g><g filter="url(#filter1_d)"><rect x="34" y="34" width="64" height="69" rx="3" fill="url(#paint1_linear)"/></g><path d="M51.42 58.387a.743.743 0 01-.743-.742h-1.484c0 1.227 1 2.226 2.226 2.226v1.484h1.484V59.87h2.226v-2.226a2.229 2.229 0 00-2.226-2.226h-1.484a.743.743 0 01-.742-.741v-.742h2.226c.409 0 .742.333.742.742h1.484a2.229 2.229 0 00-2.226-2.226v-1.484h-1.484v1.484h-2.226v2.226c0 1.226 1 2.225 2.226 2.225h1.484c.409 0 .742.333.742.742v.742h-2.226z" fill="#EDDDFF"/><g filter="url(#filter2_d)"><path d="M52.161 64.323c4.5 0 8.162-3.662 8.162-8.162 0-4.5-3.662-8.161-8.162-8.161-4.5 0-8.161 3.661-8.161 8.161s3.661 8.162 8.161 8.162zm0-14.84a6.685 6.685 0 016.678 6.678 6.685 6.685 0 01-6.678 6.678 6.685 6.685 0 01-6.677-6.678 6.685 6.685 0 016.677-6.677z" fill="url(#paint2_linear)"/></g><g filter="url(#filter3_d)"><path d="M52.161 77.677c-4.5 0-8.161 3.662-8.161 8.161 0 4.5 3.661 8.162 8.161 8.162s8.162-3.662 8.162-8.162c0-4.5-3.662-8.16-8.162-8.16zm0 14.839a6.685 6.685 0 01-6.677-6.678 6.685 6.685 0 016.677-6.677 6.685 6.685 0 016.678 6.677 6.685 6.685 0 01-6.678 6.678z" fill="url(#paint3_linear)"/></g><g filter="url(#filter4_d)"><path d="M67.742 65.807v-1.484h-1.484v1.484h-1.484v10.387h1.484v1.484h1.484v-1.484a2.97 2.97 0 002.967-2.968A2.96 2.96 0 0069.702 71a2.96 2.96 0 001.007-2.226 2.97 2.97 0 00-2.967-2.967zm0 8.903h-1.484v-2.968h1.484a1.485 1.485 0 010 2.968zm0-4.452h-1.484V67.29h1.484a1.485 1.485 0 010 2.968z" fill="#EDDDFF"/></g><g filter="url(#filter5_d)"><path d="M82.146 68.774h3.539a2.222 2.222 0 002.09 1.484A2.229 2.229 0 0090 68.032a2.229 2.229 0 00-2.226-2.225c-.966 0-1.782.622-2.09 1.483h-4.152l-1.484 1.484h-3.672a9.665 9.665 0 00-7.15-7.15v-3.672l1.484-1.484v-4.153a2.222 2.222 0 001.484-2.09A2.229 2.229 0 0069.968 48a2.229 2.229 0 00-2.226 2.226c0 .966.622 1.782 1.484 2.09v3.538l-1.484 1.484v4.055a9.334 9.334 0 00-.742-.038c-.25 0-.496.018-.742.038v-4.055l-1.484-1.484v-3.539a2.222 2.222 0 001.484-2.09A2.229 2.229 0 0064.032 48a2.229 2.229 0 00-2.225 2.226c0 .966.622 1.782 1.483 2.09v4.152l1.484 1.484v3.672a9.665 9.665 0 00-7.15 7.15h-3.672l-1.484-1.484h-4.153a2.222 2.222 0 00-2.09-1.484A2.229 2.229 0 0044 68.032a2.23 2.23 0 002.226 2.226c.966 0 1.782-.622 2.09-1.484h3.538l1.484 1.484h4.055c-.02.246-.038.492-.038.742s.018.496.038.742h-4.055l-1.484 1.484h-3.539a2.222 2.222 0 00-2.09-1.484A2.229 2.229 0 0044 73.968c0 1.227.999 2.225 2.226 2.225.966 0 1.782-.622 2.09-1.483h4.152l1.484-1.484h3.672a9.665 9.665 0 007.15 7.15v3.672l-1.484 1.484v4.153a2.222 2.222 0 00-1.483 2.09c0 1.226.998 2.225 2.225 2.225a2.229 2.229 0 002.226-2.226c0-.966-.622-1.782-1.484-2.09v-3.538l1.484-1.484v-4.055c.246.02.492.038.742.038s.496-.018.742-.038v4.055l1.484 1.484v3.539a2.222 2.222 0 00-1.484 2.09C67.742 93 68.74 94 69.968 94a2.229 2.229 0 002.225-2.226c0-.966-.622-1.782-1.483-2.09v-4.152l-1.484-1.484v-3.672a9.665 9.665 0 007.15-7.15h3.672l1.484 1.484h4.153a2.222 2.222 0 002.09 1.484A2.229 2.229 0 0090 73.968a2.229 2.229 0 00-2.226-2.226c-.966 0-1.782.622-2.09 1.484h-3.538l-1.484-1.484h-4.055c.02-.246.038-.492.038-.742s-.018-.496-.038-.742h4.055l1.484-1.484zm5.628-1.484a.743.743 0 010 1.484.743.743 0 010-1.484zM69.968 49.484a.743.743 0 010 1.484.743.743 0 010-1.484zm-5.936 0a.743.743 0 010 1.484.743.743 0 010-1.484zm-17.806 19.29a.743.743 0 010-1.484.743.743 0 010 1.484zm0 5.936a.743.743 0 010-1.484.743.743 0 010 1.484zm17.806 17.806a.743.743 0 010-1.484.743.743 0 010 1.484zm5.936 0a.743.743 0 010-1.484.743.743 0 010 1.484zm17.806-19.29a.743.743 0 010 1.484.743.743 0 010-1.484zM67 79.16c-4.5 0-8.161-3.661-8.161-8.161s3.661-8.16 8.161-8.16S75.161 66.5 75.161 71 71.5 79.161 67 79.161z" fill="url(#paint4_linear)"/></g><g filter="url(#filter6_d)"><path d="M81.839 64.323c4.5 0 8.161-3.662 8.161-8.162 0-4.5-3.66-8.161-8.16-8.161s-8.161 3.661-8.161 8.161 3.661 8.162 8.161 8.162zm0-14.84a6.685 6.685 0 016.677 6.678 6.685 6.685 0 01-6.677 6.678 6.685 6.685 0 01-6.677-6.678 6.685 6.685 0 016.677-6.677z" fill="url(#paint5_linear)"/></g><g filter="url(#filter7_d)"><path d="M81.839 77.677c-4.5 0-8.161 3.662-8.161 8.161 0 4.5 3.661 8.162 8.161 8.162S90 90.338 90 85.838c0-4.5-3.661-8.16-8.161-8.16zm0 14.839a6.685 6.685 0 01-6.677-6.678 6.685 6.685 0 016.677-6.677 6.685 6.685 0 016.677 6.677 6.685 6.685 0 01-6.677 6.678z" fill="url(#paint6_linear)"/></g><path d="M81.839 61.355a2.97 2.97 0 002.968-2.968h-1.484c0 .818-.666 1.484-1.484 1.484a1.486 1.486 0 01-1.484-1.484h1.484v-1.484h-1.484V55.42h1.484v-1.483h-1.484c0-.819.666-1.484 1.484-1.484s1.484.666 1.484 1.483h1.484a2.97 2.97 0 00-2.968-2.967 2.97 2.97 0 00-2.968 2.967h-1.484v1.484h1.484v1.484h-1.484v1.484h1.484a2.97 2.97 0 002.968 2.968zm3.493 20.557l-1.05-1.049-2.443 2.443-2.443-2.443-1.049 1.05 2.75 2.749v.435h-1.484v1.484h1.484v1.484h-1.484v1.484h1.484v1.483h1.484V89.55h1.484v-1.484H82.58V86.58h1.484v-1.484H82.58v-.435l2.75-2.75zm-36.138 2.443v.742H47.71v1.484h1.484v4.451h5.193V89.55h-3.71v-2.97h1.485v-1.484h-1.484v-.742c0-1.227.998-2.226 2.226-2.226h1.483v-1.484h-1.483a3.713 3.713 0 00-3.71 3.71z" fill="#EDDDFF"/><defs><filter id="filter0_d" x="24" y="27" width="84" height="91" filterUnits="userSpaceOnUse" color-interpolation-filters="sRGB"><feFlood flood-opacity="0" result="BackgroundImageFix"/><feColorMatrix in="SourceAlpha" values="0 0 0 0 0 0 0 0 0 0 0 0 0 0 0 0 0 0 127 0"/><feOffset dy="4"/><feGaussianBlur stdDeviation="2"/><feColorMatrix values="0 0 0 0 0 0 0 0 0 0 0 0 0 0 0 0 0 0 0.22 0"/><feBlend in2="BackgroundImageFix" result="effect1_dropShadow"/><feBlend in="SourceGraphic" in2="effect1_dropShadow" result="shape"/></filter><filter id="filter1_d" x="29" y="31" width="74" height="79" filterUnits="userSpaceOnUse" color-interpolation-filters="sRGB"><feFlood flood-opacity="0" result="BackgroundImageFix"/><feColorMatrix in="SourceAlpha" values="0 0 0 0 0 0 0 0 0 0 0 0 0 0 0 0 0 0 127 0"/><feOffset dy="2"/><feGaussianBlur stdDeviation="2.5"/><feColorMatrix values="0 0 0 0 0 0 0 0 0 0 0 0 0 0 0 0 0 0 0.21 0"/><feBlend in2="BackgroundImageFix" result="effect1_dropShadow"/><feBlend in="SourceGraphic" in2="effect1_dropShadow" result="shape"/></filter><filter id="filter2_d" x="43" y="48" width="18.323" height="19.323" filterUnits="userSpaceOnUse" color-interpolation-filters="sRGB"><feFlood flood-opacity="0" result="BackgroundImageFix"/><feColorMatrix in="SourceAlpha" values="0 0 0 0 0 0 0 0 0 0 0 0 0 0 0 0 0 0 127 0"/><feOffset dy="2"/><feGaussianBlur stdDeviation=".5"/><feColorMatrix values="0 0 0 0 0.31719 0 0 0 0 0.0325521 0 0 0 0 0.520833 0 0 0 0.24 0"/><feBlend in2="BackgroundImageFix" result="effect1_dropShadow"/><feBlend in="SourceGraphic" in2="effect1_dropShadow" result="shape"/></filter><filter id="filter3_d" x="43" y="77.677" width="18.323" height="19.323" filterUnits="userSpaceOnUse" color-interpolation-filters="sRGB"><feFlood flood-opacity="0" result="BackgroundImageFix"/><feColorMatrix in="SourceAlpha" values="0 0 0 0 0 0 0 0 0 0 0 0 0 0 0 0 0 0 127 0"/><feOffset dy="2"/><feGaussianBlur stdDeviation=".5"/><feColorMatrix values="0 0 0 0 0.31719 0 0 0 0 0.0325521 0 0 0 0 0.520833 0 0 0 0.24 0"/><feBlend in2="BackgroundImageFix" result="effect1_dropShadow"/><feBlend in="SourceGraphic" in2="effect1_dropShadow" result="shape"/></filter><filter id="filter4_d" x="60.774" y="64.323" width="13.935" height="21.355" filterUnits="userSpaceOnUse" color-interpolation-filters="sRGB"><feFlood flood-opacity="0" result="BackgroundImageFix"/><feColorMatrix in="SourceAlpha" values="0 0 0 0 0 0 0 0 0 0 0 0 0 0 0 0 0 0 127 0"/><feOffset dy="4"/><feGaussianBlur stdDeviation="2"/><feColorMatrix values="0 0 0 0 0 0 0 0 0 0 0 0 0 0 0 0 0 0 0.25 0"/><feBlend in2="BackgroundImageFix" result="effect1_dropShadow"/><feBlend in="SourceGraphic" in2="effect1_dropShadow" result="shape"/></filter><filter id="filter5_d" x="43" y="48" width="48" height="49" filterUnits="userSpaceOnUse" color-interpolation-filters="sRGB"><feFlood flood-opacity="0" result="BackgroundImageFix"/><feColorMatrix in="SourceAlpha" values="0 0 0 0 0 0 0 0 0 0 0 0 0 0 0 0 0 0 127 0"/><feOffset dy="2"/><feGaussianBlur stdDeviation=".5"/><feColorMatrix values="0 0 0 0 0.31719 0 0 0 0 0.0325521 0 0 0 0 0.520833 0 0 0 0.24 0"/><feBlend in2="BackgroundImageFix" result="effect1_dropShadow"/><feBlend in="SourceGraphic" in2="effect1_dropShadow" result="shape"/></filter><filter id="filter6_d" x="72.678" y="48" width="18.323" height="19.323" filterUnits="userSpaceOnUse" color-interpolation-filters="sRGB"><feFlood flood-opacity="0" result="BackgroundImageFix"/><feColorMatrix in="SourceAlpha" values="0 0 0 0 0 0 0 0 0 0 0 0 0 0 0 0 0 0 127 0"/><feOffset dy="2"/><feGaussianBlur stdDeviation=".5"/><feColorMatrix values="0 0 0 0 0.31719 0 0 0 0 0.0325521 0 0 0 0 0.520833 0 0 0 0.24 0"/><feBlend in2="BackgroundImageFix" result="effect1_dropShadow"/><feBlend in="SourceGraphic" in2="effect1_dropShadow" result="shape"/></filter><filter id="filter7_d" x="72.678" y="77.677" width="18.323" height="19.323" filterUnits="userSpaceOnUse" color-interpolation-filters="sRGB"><feFlood flood-opacity="0" result="BackgroundImageFix"/><feColorMatrix in="SourceAlpha" values="0 0 0 0 0 0 0 0 0 0 0 0 0 0 0 0 0 0 127 0"/><feOffset dy="2"/><feGaussianBlur stdDeviation=".5"/><feColorMatrix values="0 0 0 0 0.31719 0 0 0 0 0.0325521 0 0 0 0 0.520833 0 0 0 0.24 0"/><feBlend in2="BackgroundImageFix" result="effect1_dropShadow"/><feBlend in="SourceGraphic" in2="effect1_dropShadow" result="shape"/></filter><linearGradient id="paint0_linear" x1="88" y1="130" x2="85.5" y2="0" gradientUnits="userSpaceOnUse"><stop stop-color="#191540"/><stop offset="1" stop-color="#2A2759"/><stop offset="1" stop-color="#19173D"/></linearGradient><linearGradient id="paint1_linear" x1="66.727" y1="36.016" x2="75.521" y2="138.343" gradientUnits="userSpaceOnUse"><stop stop-color="#C1A1F3"/><stop offset="1" stop-color="#C1A1F3" stop-opacity="0"/><stop offset="1" stop-color="#CFB4FA"/></linearGradient><linearGradient id="paint2_linear" x1="52.161" y1="45.339" x2="53.964" y2="66.475" gradientUnits="userSpaceOnUse"><stop stop-color="#7645C7"/><stop offset="1" stop-color="#2B174D"/></linearGradient><linearGradient id="paint3_linear" x1="52.161" y1="75.016" x2="53.964" y2="96.153" gradientUnits="userSpaceOnUse"><stop stop-color="#7645C7"/><stop offset="1" stop-color="#2B174D"/></linearGradient><linearGradient id="paint4_linear" x1="67" y1="40.5" x2="72.08" y2="100.067" gradientUnits="userSpaceOnUse"><stop stop-color="#7645C7"/><stop offset="1" stop-color="#2B174D"/></linearGradient><linearGradient id="paint5_linear" x1="81.839" y1="45.339" x2="83.642" y2="66.475" gradientUnits="userSpaceOnUse"><stop stop-color="#7645C7"/><stop offset="1" stop-color="#2B174D"/></linearGradient><linearGradient id="paint6_linear" x1="81.839" y1="75.016" x2="83.642" y2="96.153" gradientUnits="userSpaceOnUse"><stop stop-color="#7645C7"/><stop offset="1" stop-color="#2B174D"/></linearGradient></defs></svg>