<svg width="130" height="130" fill="none" xmlns="http://www.w3.org/2000/svg"><rect width="130" height="130" rx="18" fill="url(#paint0_linear)"/><g filter="url(#filter0_d)"><rect x="34.909" y="79" width="26.588" height="13.42" rx="4" transform="rotate(41.594 34.91 79)" fill="url(#paint1_linear)"/></g><circle cx="72" cy="45" r="16" fill="url(#paint2_linear)"/><path d="M62.5 71c-13.6-3.2-19.333 3.333-20.5 7l-2 2 13 12.5c.667-.667 2.5-2.2 4.5-3 14.8 1.6 26.167-.667 30-2L100 72l4-4.5-2-4.5c-1 .167-3.5.6-5.5 1s-6.167 5.5-8 8l-6-1c-4.5.333-14.8.8-20 0z" fill="url(#paint3_linear)"/><path d="M55.01 44.968c0 9.357 7.613 16.968 16.973 16.968s16.973-7.613 16.973-16.968S81.34 28 71.983 28c-9.358 0-16.974 7.611-16.974 16.968zm30.859 0c0 7.655-6.23 13.884-13.888 13.884-7.658 0-13.888-6.228-13.888-13.884 0-7.655 6.23-13.882 13.888-13.882 7.659 0 13.888 6.227 13.888 13.882zm-42.096 61.575c.599.604 1.571.61 2.178.013l7.48-7.368a4.61 4.61 0 001.296-2.581c.203-1.349.431-2.81 1.413-3.756a4.602 4.602 0 013.214-1.298h20.512c3.64 0 7.079-1.396 9.687-3.934.108-.105-.815.981 13.995-16.712a6.177 6.177 0 00-.734-8.696 6.188 6.188 0 00-8.658.688l-5.97 6.133c-1.67 1.716-4.575 1.4-6.936 1.008a6.094 6.094 0 00-.996-.082H63.848c-.53 0-1.054-.11-1.55-.295a19.924 19.924 0 00-6.98-1.248c-6.42 0-12.138 2.56-15.819 7.407-1.053 1.386-2.86 2.075-4.43 2.828a4.639 4.639 0 00-1.278.907l-7.34 7.36c-.6.6-.6 1.574-.003 2.175l17.325 17.451zm11.543-35.044c2.363 0 4.65.476 6.793 1.414.196.085.406.13.619.13H80.25c1.673 0 3.087 1.363 3.087 3.084a3.09 3.09 0 01-3.087 3.086H67.66a1.544 1.544 0 000 3.086h12.59a6.178 6.178 0 006.172-6.17c0-.512.158-1.026.515-1.392 8.293-8.522 9.481-9.74 9.534-9.801a3.096 3.096 0 014.351-.368 3.09 3.09 0 01.362 4.355l-13.84 16.54a10.747 10.747 0 01-7.48 3.008H59.352a7.67 7.67 0 00-5.355 2.163 1.856 1.856 0 01-2.601-.024l-8.704-8.7c-1.245-1.245-1.572-3.195-.47-4.568 3.015-3.756 7.607-5.843 13.094-5.843zM35.974 81.737c.509-.51 1.29-.6 1.91-.218.267.162-.5-.535 13.365 13.305.618.618.584 1.599.008 2.175l-3.539 3.485a4 4 0 01-5.646-.032l-9.549-9.62a4 4 0 01.007-5.642l3.444-3.453z" fill="#8400E4"/><path d="M70.13 35.713c0 1.084-.736 2.002-1.543 2.724a4.613 4.613 0 00-1.543 3.445 4.633 4.633 0 004.629 4.628 1.544 1.544 0 010 3.086c-.66 0-1.37-.414-2.004-1.167a1.544 1.544 0 00-2.363 1.986 7.24 7.24 0 001.237 1.172c.865.64 1.586 1.562 1.586 2.637a1.544 1.544 0 003.087 0c0-1.083.737-2.001 1.544-2.724a4.613 4.613 0 001.543-3.444 4.633 4.633 0 00-4.629-4.628 1.544 1.544 0 010-3.086c.547 0 1.124.28 1.669.807a1.544 1.544 0 002.147-2.217 6.89 6.89 0 00-.687-.585c-.863-.64-1.585-1.56-1.585-2.634a1.544 1.544 0 00-3.087 0z" fill="#8400E4"/><defs><linearGradient id="paint0_linear" x1="88" y1="130" x2="85.5" y2="0" gradientUnits="userSpaceOnUse"><stop stop-color="#191540"/><stop offset="1" stop-color="#2A2759"/><stop offset="1" stop-color="#19173D"/></linearGradient><linearGradient id="paint1_linear" x1="48.505" y1="79.392" x2="44.764" y2="111.127" gradientUnits="userSpaceOnUse"><stop stop-color="#C1A1F3"/><stop offset="1" stop-color="#AE92DB" stop-opacity="0"/></linearGradient><linearGradient id="paint2_linear" x1="72" y1="29" x2="72" y2="61" gradientUnits="userSpaceOnUse"><stop stop-color="#CBB1F9"/><stop offset="1" stop-color="#9276BD"/></linearGradient><linearGradient id="paint3_linear" x1="72" y1="63" x2="72" y2="92.5" gradientUnits="userSpaceOnUse"><stop stop-color="#CBB1F9"/><stop offset="1" stop-color="#9276BD"/></linearGradient><filter id="filter0_d" x="22.647" y="77.647" width="35.5" height="34.393" filterUnits="userSpaceOnUse" color-interpolation-filters="sRGB"><feFlood flood-opacity="0" result="BackgroundImageFix"/><feColorMatrix in="SourceAlpha" values="0 0 0 0 0 0 0 0 0 0 0 0 0 0 0 0 0 0 127 0"/><feOffset dy="2"/><feGaussianBlur stdDeviation="2.5"/><feColorMatrix values="0 0 0 0 0 0 0 0 0 0 0 0 0 0 0 0 0 0 0.21 0"/><feBlend in2="BackgroundImageFix" result="effect1_dropShadow"/><feBlend in="SourceGraphic" in2="effect1_dropShadow" result="shape"/></filter></defs></svg>