<svg width="130" height="130" viewBox="0 0 130 130" fill="none" xmlns="http://www.w3.org/2000/svg">
<rect width="130" height="130" rx="18" fill="url(#paint0_linear)"/>
<g filter="url(#filter0_f)">
<path d="M64.5001 103.5C35.3001 99.1 31.3334 57.6667 33.0001 37.5L66.5 28L96 37.5V67C89 98 67.5001 102.5 64.5001 103.5Z" fill="#7425AC"/>
</g>
<g clip-path="url(#clip0)">
<path d="M95.4 36.1137L65.6857 27.0902C65.4571 27 65.2286 27 65 27C64.7714 27 64.5429 27 64.3143 27.0902L34.6 36.1137C33.64 36.4295 33 37.2867 33 38.2793V61.1387C33 94.0291 63.9943 103.82 64.3143 103.91C64.5429 103.955 64.7714 104 65 104C65.2286 104 65.4571 103.955 65.6857 103.91C66.0057 103.82 97 94.0291 97 61.1387V38.2793C97 37.2867 96.36 36.4295 95.4 36.1137Z" fill="#8400E4"/>
<path d="M97 38.2793V61.1387C97 94.0291 66.0057 103.82 65.6857 103.91C65.4571 103.955 65.2286 104 65 104V27C65.2286 27 65.4571 27 65.6857 27.0902L95.4 36.1137C96.36 36.4295 97 37.2867 97 38.2793Z" fill="#8400E4"/>
<g filter="url(#filter1_d)">
<path d="M92.55 38.4035L65.6214 30.0832C65.4143 30 65.2071 30 65 30C64.7929 30 64.5857 30 64.3786 30.0832L37.45 38.4035C36.58 38.6947 36 39.4852 36 40.4004V61.4785C36 91.806 64.0886 100.834 64.3786 100.917C64.5857 100.958 64.7929 101 65 101C65.2071 101 65.4143 100.958 65.6214 100.917C65.9114 100.834 94 91.806 94 61.4785V40.4004C94 39.4852 93.42 38.6947 92.55 38.4035Z" fill="url(#paint1_linear)"/>
</g>
<g filter="url(#filter2_d)">
<ellipse cx="65.5" cy="63" rx="18.5" ry="18" fill="#8400E4"/>
</g>
<path d="M75.6172 77.8336C74.9383 77.5312 74.5 76.8655 74.5 76.1325V73.8939C74.5 72.3373 69.3941 71.1302 65 71.1302C60.6059 71.1302 55.5 72.3373 55.5 73.8939V76.1325C55.5 76.8655 55.0617 77.5299 54.3828 77.8336C53.7039 78.1359 52.9059 78.0177 52.3435 77.5349C48.3117 74.0457 46 68.9912 46 63.6653C46 53.3733 54.5247 45 65 45C75.4753 45 84 53.3733 84 63.6653C84 68.9912 81.6883 74.0457 77.6565 77.5349C77.0992 78.014 76.305 78.1397 75.6172 77.8336Z" fill="url(#paint2_linear)"/>
<path d="M74.5 73.8949V76.1334C74.5 76.8663 74.9383 77.5308 75.6172 77.8344C76.305 78.1393 77.0992 78.0136 77.6565 77.5358C81.6883 74.0454 84 68.9909 84 63.6651C84 53.3732 75.4766 45 65 45V71.1312C69.3941 71.1312 74.5 72.3382 74.5 73.8949Z" fill="url(#paint3_linear)"/>
<path d="M65 82C60.3732 82 55.9718 80.2951 52.6054 77.1992C52.2191 76.8442 52 76.3405 52 75.813V73.5257C52 67.1837 63.669 67 65 67C66.331 67 78 67.1825 78 73.5257V75.813C78 76.3405 77.7809 76.8442 77.3946 77.1992C74.0282 80.2951 69.6268 82 65 82ZM76.1429 75.813H76.1788H76.1429Z" fill="url(#paint4_linear)"/>
<circle cx="64" cy="58" r="7" fill="url(#paint5_linear)"/>
</g>
<defs>
<filter id="filter0_f" x="25.6772" y="21" width="77.3228" height="89.5" filterUnits="userSpaceOnUse" color-interpolation-filters="sRGB">
<feFlood flood-opacity="0" result="BackgroundImageFix"/>
<feBlend mode="normal" in="SourceGraphic" in2="BackgroundImageFix" result="shape"/>
<feGaussianBlur stdDeviation="3.5" result="effect1_foregroundBlur"/>
</filter>
<filter id="filter1_d" x="32" y="30" width="66" height="79" filterUnits="userSpaceOnUse" color-interpolation-filters="sRGB">
<feFlood flood-opacity="0" result="BackgroundImageFix"/>
<feColorMatrix in="SourceAlpha" type="matrix" values="0 0 0 0 0 0 0 0 0 0 0 0 0 0 0 0 0 0 127 0"/>
<feOffset dy="4"/>
<feGaussianBlur stdDeviation="2"/>
<feColorMatrix type="matrix" values="0 0 0 0 0 0 0 0 0 0 0 0 0 0 0 0 0 0 0.25 0"/>
<feBlend mode="normal" in2="BackgroundImageFix" result="effect1_dropShadow"/>
<feBlend mode="normal" in="SourceGraphic" in2="effect1_dropShadow" result="shape"/>
</filter>
<filter id="filter2_d" x="42" y="42" width="47" height="46" filterUnits="userSpaceOnUse" color-interpolation-filters="sRGB">
<feFlood flood-opacity="0" result="BackgroundImageFix"/>
<feColorMatrix in="SourceAlpha" type="matrix" values="0 0 0 0 0 0 0 0 0 0 0 0 0 0 0 0 0 0 127 0"/>
<feOffset dy="2"/>
<feGaussianBlur stdDeviation="2.5"/>
<feColorMatrix type="matrix" values="0 0 0 0 0.517647 0 0 0 0 0 0 0 0 0 0.894118 0 0 0 0.3 0"/>
<feBlend mode="normal" in2="BackgroundImageFix" result="effect1_dropShadow"/>
<feBlend mode="normal" in="SourceGraphic" in2="effect1_dropShadow" result="shape"/>
</filter>
<linearGradient id="paint0_linear" x1="65" y1="0" x2="65" y2="130" gradientUnits="userSpaceOnUse">
<stop stop-color="#292658"/>
<stop offset="1" stop-color="#1B1743"/>
</linearGradient>
<linearGradient id="paint1_linear" x1="64.6627" y1="40.3024" x2="64.6627" y2="117.438" gradientUnits="userSpaceOnUse">
<stop stop-color="#C1A1F3"/>
<stop offset="1" stop-color="#C1A1F3" stop-opacity="0"/>
</linearGradient>
<linearGradient id="paint2_linear" x1="65" y1="45" x2="65" y2="78" gradientUnits="userSpaceOnUse">
<stop stop-color="#7C46A4"/>
<stop offset="1" stop-color="#581D83"/>
</linearGradient>
<linearGradient id="paint3_linear" x1="74.5" y1="45" x2="74.5" y2="78" gradientUnits="userSpaceOnUse">
<stop stop-color="#7C46A4"/>
<stop offset="1" stop-color="#581D83"/>
</linearGradient>
<linearGradient id="paint4_linear" x1="65" y1="67" x2="65" y2="82" gradientUnits="userSpaceOnUse">
<stop stop-color="#EADFFC"/>
<stop offset="1" stop-color="#CA82FF"/>
</linearGradient>
<linearGradient id="paint5_linear" x1="64" y1="51" x2="64" y2="65" gradientUnits="userSpaceOnUse">
<stop stop-color="#EADFFC"/>
<stop offset="1" stop-color="#CA82FF"/>
</linearGradient>
<clipPath id="clip0">
<rect width="64" height="77" fill="white" transform="translate(33 27)"/>
</clipPath>
</defs>
</svg>
