<svg width="160" height="291" fill="none" xmlns="http://www.w3.org/2000/svg"><g clip-path="url(#clip0)"><path d="M68.032 179.241h23.929c-.053.19-7.85 11.277 0 22.22H68.032c7.889-10.995.06-22.004 0-22.22z" fill="url(#paint0_linear)"/><path d="M91.96 179.241c-.012.046-.55.838-1.2 2.167-.118.006-7.554.471-11.138 6.8-2.841 5.02-1.214 10.949-.387 13.253H68.032c7.889-10.995.06-22.004 0-22.22h23.929z" fill="url(#paint1_linear)"/><path d="M33.163 131.033c-6.498-7.291-14.38-12.01-21.684-15.747-2.278-1.165-3.689-3.429-3.689-5.916V72.156c0-2.395 3.505-1.276 5.598-1.538 2.645 0 1.11 3.96 1.543 10.491 0 4.804 3.918 8.711 8.735 8.711h9.385v-7.768h-9.385c-1.68 0-.617-2.271-.945-9.896 0-5.131-4.187-9.3-9.326-9.3H9.339c-5.145 0-9.326 4.175-9.326 9.3v37.214c0 16.839 18.62 15.151 34.154 37.082 1.227 1.728 5.926 6.061 5.926 6.061a46.895 46.895 0 01-6.93-21.48z" fill="url(#paint2_linear)"/><path d="M126.837 131.033c6.497-7.291 14.38-12.01 21.684-15.747 2.278-1.165 3.689-3.429 3.689-5.916V72.156c0-2.395-3.505-1.276-5.599-1.538-2.644 0-1.109 3.96-1.542 10.491 0 4.804-3.918 8.711-8.735 8.711h-9.385v-7.768h9.385c1.68 0 .617-2.271.945-9.896 0-5.131 4.187-9.3 9.326-9.3h4.056c5.152 0 9.339 4.169 9.339 9.3v37.214c0 16.839-18.619 15.151-34.154 37.082-1.227 1.728-5.926 6.061-5.926 6.061a47.039 47.039 0 006.917-21.48z" fill="url(#paint3_linear)"/><path d="M54.788 52.928h50.43l12.811 11.976H41.964l12.824-11.976z" fill="url(#paint4_linear)"/><path d="M35.801 64.904h88.397c4.214 0 7.627 3.404 7.627 7.606H28.175c0-4.202 3.413-7.606 7.626-7.606z" fill="url(#paint5_linear)"/><path d="M131.825 72.51v1.943a4.377 4.377 0 01-4.378 4.372H32.559a4.377 4.377 0 01-4.384-4.372V72.51h103.65z" fill="url(#paint6_linear)"/><path d="M126.837 131.033a51.563 51.563 0 013.4-3.475v.124c0 5.727-.939 11.309-2.77 16.584a68.575 68.575 0 00-1.621 2.186c-1.227 1.728-5.926 6.061-5.926 6.061a47.035 47.035 0 006.917-21.48z" fill="url(#paint7_linear)"/><path d="M126.955 82.052h3.282v7.768h-3.282v-7.768z" fill="url(#paint8_linear)"/><path d="M126.955 78.819v48.863c0 21.434-14.268 39.55-33.852 45.407H66.89c-19.584-5.864-33.852-23.973-33.852-45.407V78.819h93.917z" fill="url(#paint9_linear)"/><path d="M100.624 170.118c-13.54-11.401-33.012-29.878-33.012-51.181 0-15.079 1.542-29.274 8.932-40.118h50.411v48.863c0 18.58-10.724 34.668-26.331 42.436z" fill="url(#paint10_linear)"/><path d="M66.89 173.089v6.146h26.213v-6.146H66.89z" fill="url(#paint11_linear)"/><path d="M93.103 175.053H66.89v-1.964h26.213v1.964z" fill="url(#paint12_linear)"/><path d="M66.897 201.461h26.2a4.37 4.37 0 014.377 4.365v.701H62.513v-.701a4.384 4.384 0 014.384-4.365z" fill="url(#paint13_linear)"/><path d="M102.456 206.527v46.814H57.545v-46.814h44.911z" fill="url(#paint14_linear)"/><path d="M102.456 250.115a22.655 22.655 0 01-3.958.347c-15.134 0-27.4-15.021-27.4-33.542 0-3.626.472-7.121 1.338-10.393h30.02v43.588z" fill="url(#paint15_linear)"/><path d="M52.642 253.341h54.722a3.236 3.236 0 013.242 3.233v.871h-61.2v-.871a3.227 3.227 0 013.236-3.233z" fill="url(#paint16_linear)"/><path d="M116.789 257.445v27.462H43.211v-27.462h73.578z" fill="url(#paint17_linear)"/><path d="M116.789 257.445v26.768a67.535 67.535 0 01-4.017.118c-22.872 0-41.944-11.565-46.203-26.893 19.689.007 44.983.007 50.22.007z" fill="url(#paint18_linear)"/><path d="M40.592 284.907h78.815l4.726 4.712V291H35.86v-1.381c1.85-1.839 2.881-2.873 4.732-4.712z" fill="url(#paint19_linear)"/><path d="M74.792 44.19h10.41c3.254 0 5.893 2.631 5.893 5.877v2.86H68.899v-2.86c0-3.24 2.638-5.877 5.893-5.877z" fill="url(#paint20_linear)"/><path d="M78.231 47.737c0-1.413 3.938-2.61 9.392-3.03a5.882 5.882 0 013.472 5.36v.851c-7.174-.091-12.864-1.479-12.864-3.18z" fill="url(#paint21_linear)"/><path d="M85.26 39.203v4.987H74.746v-4.987H85.26z" fill="url(#paint22_linear)"/><path d="M85.26 41.441a22.1 22.1 0 01-5.257.629 22.1 22.1 0 01-5.257-.629v-2.238H85.26v2.238z" fill="url(#paint23_linear)"/><path d="M79.442 40.102c-11.101-.307-19.851-9.53-19.544-20.601C60.206 8.43 69.455-.296 80.556.01c11.102.307 19.852 9.53 19.544 20.6-.307 11.071-9.556 19.797-20.658 19.49z" fill="url(#paint24_linear)"/><path d="M60.44 20.053c0 2.022 1.79 3.744 2.381 5.57.617 1.891.204 4.326 1.352 5.903 1.162 1.59 3.617 1.944 5.212 3.102 1.581 1.146 2.67 3.37 4.567 3.986 1.831.596 4.017-.55 6.045-.55 2.028 0 4.213 1.146 6.044.55 1.897-.615 2.987-2.84 4.568-3.986 1.595-1.158 4.05-1.512 5.211-3.102 1.149-1.577.735-4.012 1.352-5.903.597-1.826 2.383-3.541 2.383-5.563 0-2.023-1.792-3.744-2.383-5.563-.617-1.892-.203-4.327-1.352-5.904-1.161-1.59-3.616-1.944-5.21-3.102-1.582-1.145-2.672-3.37-4.569-3.986-1.83-.595-4.016.55-6.044.55-2.028 0-4.214-1.145-6.045-.55-1.896.615-2.986 2.84-4.567 3.986-1.595 1.158-4.05 1.512-5.212 3.102-1.148 1.577-.735 4.012-1.352 5.903-.597 1.82-2.382 3.535-2.382 5.557z" fill="url(#paint25_linear)"/><path d="M75.127 37.37c.617 0 1.332-.156 2.087-.32.892-.196 1.818-.4 2.79-.4.964 0 1.89.204 2.788.4.755.164 1.477.32 2.087.32.283 0 .525-.032.736-.098.78-.255 1.483-1.047 2.224-1.891.591-.668 1.195-1.355 1.943-1.898.755-.55 1.608-.916 2.435-1.276 1.024-.445 1.995-.864 2.468-1.512.466-.641.57-1.682.676-2.788.085-.897.177-1.82.472-2.716.282-.864.742-1.643 1.195-2.396.577-.968 1.122-1.885 1.122-2.735 0-.845-.545-1.76-1.122-2.736-.447-.753-.913-1.532-1.195-2.395-.295-.897-.38-1.826-.472-2.716-.112-1.107-.21-2.147-.676-2.789-.473-.647-1.444-1.066-2.468-1.511-.827-.36-1.674-.727-2.435-1.277-.748-.543-1.358-1.23-1.943-1.898-.741-.844-1.444-1.636-2.224-1.891a2.467 2.467 0 00-.736-.098c-.617 0-1.332.157-2.087.32-.892.197-1.817.4-2.789.4-.965 0-1.89-.203-2.79-.4-.754-.163-1.47-.32-2.086-.32a2.45 2.45 0 00-.735.098c-.781.255-1.483 1.047-2.225 1.891-.59.668-1.195 1.355-1.943 1.898-.755.55-1.608.917-2.435 1.277-1.023.445-1.995.864-2.467 1.511-.466.642-.571 1.682-.676 2.789-.086.896-.178 1.819-.473 2.716-.282.864-.742 1.642-1.194 2.395-.578.969-1.123 1.885-1.123 2.736 0 .844.545 1.76 1.123 2.735.446.753.912 1.532 1.194 2.396.295.896.38 1.826.473 2.716.105 1.106.21 2.147.676 2.788.472.648 1.444 1.067 2.467 1.512.827.36 1.674.726 2.435 1.276.748.543 1.352 1.23 1.943 1.898.742.844 1.444 1.636 2.225 1.891.21.066.453.099.735.099z" fill="url(#paint26_linear)"/><path d="M79.997 34.262c-7.87 0-14.248-6.362-14.248-14.209 0-7.847 6.379-14.209 14.248-14.209s14.248 6.362 14.248 14.21c0 7.846-6.38 14.208-14.248 14.208z" fill="url(#paint27_linear)"/><path d="M70.427 29.6c-5.288-5.273-5.288-13.822 0-19.095 5.287-5.273 13.86-5.273 19.147 0 5.288 5.273 5.288 13.822 0 19.094-5.287 5.273-13.86 5.273-19.147 0z" fill="url(#paint28_linear)"/><path d="M79.997 32.292c-6.778 0-12.273-5.48-12.273-12.239 0-6.76 5.495-12.239 12.273-12.239s12.272 5.48 12.272 12.24c0 6.758-5.494 12.238-12.272 12.238z" fill="url(#paint29_linear)"/><path d="M75.022 31.251l14.773-18.574c.5.655.932 1.362 1.293 2.114L77.385 32.017a12.46 12.46 0 01-2.363-.766z" fill="url(#paint30_linear)"/><path d="M81.986 32.135L92.25 19.229c.02.274.026.55.026.824 0 .36-.013.713-.046 1.067l-8.407 10.57a11.41 11.41 0 01-1.837.445z" fill="url(#paint31_linear)"/><path d="M70.631 27.966l14.957-18.81c.348.177.69.373 1.024.582l-15.18 19.085a12.394 12.394 0 01-.8-.857z" fill="url(#paint32_linear)"/><path d="M68.098 23.05L80.214 7.815c.702.014 1.391.086 2.06.21L68.768 25.008a12.284 12.284 0 01-.67-1.957z" fill="url(#paint33_linear)"/></g><defs><linearGradient id="paint0_linear" x1="91.43" y1="190.47" x2="73.692" y2="190.546" gradientUnits="userSpaceOnUse"><stop stop-color="#E2D0FF"/><stop offset="1" stop-color="#8A4CEA"/></linearGradient><linearGradient id="paint1_linear" x1="65.376" y1="185.848" x2="75.367" y2="196.164" gradientUnits="userSpaceOnUse"><stop stop-color="#9F27F8"/><stop offset="1" stop-color="#5F1397"/></linearGradient><linearGradient id="paint2_linear" x1="-4.436" y1="89.512" x2="24.776" y2="102.033" gradientUnits="userSpaceOnUse"><stop stop-color="#9F27F8"/><stop offset="1" stop-color="#5F1397"/></linearGradient><linearGradient id="paint3_linear" x1="158.917" y1="108.165" x2="122.725" y2="108.243" gradientUnits="userSpaceOnUse"><stop stop-color="#E2D0FF"/><stop offset="1" stop-color="#8A4CEA"/></linearGradient><linearGradient id="paint4_linear" x1="115.973" y1="58.98" x2="47.351" y2="61.072" gradientUnits="userSpaceOnUse"><stop stop-color="#E2D0FF"/><stop offset="1" stop-color="#8A4CEA"/></linearGradient><linearGradient id="paint5_linear" x1="129.023" y1="68.748" x2="35.827" y2="74.845" gradientUnits="userSpaceOnUse"><stop stop-color="#E2D0FF"/><stop offset="1" stop-color="#8A4CEA"/></linearGradient><linearGradient id="paint6_linear" x1="16.67" y1="74.387" x2="17.03" y2="80.047" gradientUnits="userSpaceOnUse"><stop stop-color="#9F27F8"/><stop offset="1" stop-color="#5F1397"/></linearGradient><linearGradient id="paint7_linear" x1="118.775" y1="134.977" x2="126.467" y2="138.026" gradientUnits="userSpaceOnUse"><stop stop-color="#9F27F8"/><stop offset="1" stop-color="#5F1397"/></linearGradient><linearGradient id="paint8_linear" x1="126.591" y1="84.362" x2="129.023" y2="85.347" gradientUnits="userSpaceOnUse"><stop stop-color="#9F27F8"/><stop offset="1" stop-color="#5F1397"/></linearGradient><linearGradient id="paint9_linear" x1="22.614" y1="106.846" x2="64.98" y2="147.316" gradientUnits="userSpaceOnUse"><stop stop-color="#9F27F8"/><stop offset="1" stop-color="#5F1397"/></linearGradient><linearGradient id="paint10_linear" x1="125.638" y1="124.958" x2="81.647" y2="125.07" gradientUnits="userSpaceOnUse"><stop stop-color="#E2D0FF"/><stop offset="1" stop-color="#8A4CEA"/></linearGradient><linearGradient id="paint11_linear" x1="96.012" y1="174.916" x2="94.737" y2="180.134" gradientUnits="userSpaceOnUse"><stop stop-color="#9F27F8"/><stop offset="1" stop-color="#5F1397"/></linearGradient><linearGradient id="paint12_linear" x1="96.196" y1="175.053" x2="96.118" y2="173.985" gradientUnits="userSpaceOnUse"><stop stop-color="#9F27F8"/><stop offset="1" stop-color="#5F1397"/></linearGradient><linearGradient id="paint13_linear" x1="58.632" y1="202.967" x2="59.306" y2="207.423" gradientUnits="userSpaceOnUse"><stop stop-color="#9F27F8"/><stop offset="1" stop-color="#5F1397"/></linearGradient><linearGradient id="paint14_linear" x1="52.56" y1="220.445" x2="73.548" y2="239.751" gradientUnits="userSpaceOnUse"><stop stop-color="#9F27F8"/><stop offset="1" stop-color="#5F1397"/></linearGradient><linearGradient id="paint15_linear" x1="101.76" y1="228.73" x2="78.514" y2="228.795" gradientUnits="userSpaceOnUse"><stop stop-color="#E2D0FF"/><stop offset="1" stop-color="#8A4CEA"/></linearGradient><linearGradient id="paint16_linear" x1="42.613" y1="254.561" x2="42.87" y2="258.236" gradientUnits="userSpaceOnUse"><stop stop-color="#9F27F8"/><stop offset="1" stop-color="#5F1397"/></linearGradient><linearGradient id="paint17_linear" x1="35.044" y1="265.61" x2="43.397" y2="287.067" gradientUnits="userSpaceOnUse"><stop stop-color="#9F27F8"/><stop offset="1" stop-color="#5F1397"/></linearGradient><linearGradient id="paint18_linear" x1="115.675" y1="271.029" x2="78.448" y2="271.303" gradientUnits="userSpaceOnUse"><stop stop-color="#E2D0FF"/><stop offset="1" stop-color="#8A4CEA"/></linearGradient><linearGradient id="paint19_linear" x1="26.062" y1="286.718" x2="26.455" y2="292.172" gradientUnits="userSpaceOnUse"><stop stop-color="#9F27F8"/><stop offset="1" stop-color="#5F1397"/></linearGradient><linearGradient id="paint20_linear" x1="66.435" y1="46.788" x2="69.197" y2="53.515" gradientUnits="userSpaceOnUse"><stop stop-color="#9F27F8"/><stop offset="1" stop-color="#5F1397"/></linearGradient><linearGradient id="paint21_linear" x1="90.747" y1="47.846" x2="79.132" y2="47.962" gradientUnits="userSpaceOnUse"><stop stop-color="#E2D0FF"/><stop offset="1" stop-color="#8A4CEA"/></linearGradient><linearGradient id="paint22_linear" x1="73.579" y1="40.686" x2="75.363" y2="44.291" gradientUnits="userSpaceOnUse"><stop stop-color="#9F27F8"/><stop offset="1" stop-color="#5F1397"/></linearGradient><linearGradient id="paint23_linear" x1="73.579" y1="40.055" x2="74.258" y2="42.442" gradientUnits="userSpaceOnUse"><stop stop-color="#9F27F8"/><stop offset="1" stop-color="#5F1397"/></linearGradient><linearGradient id="paint24_linear" x1="55.662" y1="11.252" x2="73.202" y2="29.078" gradientUnits="userSpaceOnUse"><stop stop-color="#9F27F8"/><stop offset="1" stop-color="#5F1397"/></linearGradient><linearGradient id="paint25_linear" x1="98.498" y1="20.26" x2="63.177" y2="20.437" gradientUnits="userSpaceOnUse"><stop stop-color="#E2D0FF"/><stop offset="1" stop-color="#8A4CEA"/></linearGradient><linearGradient id="paint26_linear" x1="57.828" y1="13.042" x2="73.403" y2="28.698" gradientUnits="userSpaceOnUse"><stop stop-color="#9F27F8"/><stop offset="1" stop-color="#5F1397"/></linearGradient><linearGradient id="paint27_linear" x1="93.475" y1="20.206" x2="67.743" y2="20.329" gradientUnits="userSpaceOnUse"><stop stop-color="#E2D0FF"/><stop offset="1" stop-color="#8A4CEA"/></linearGradient><linearGradient id="paint28_linear" x1="72.182" y1="4.515" x2="72.534" y2="21.327" gradientUnits="userSpaceOnUse"><stop stop-color="#9F27F8"/><stop offset="1" stop-color="#5F1397"/></linearGradient><linearGradient id="paint29_linear" x1="91.606" y1="20.184" x2="69.442" y2="20.291" gradientUnits="userSpaceOnUse"><stop stop-color="#E2D0FF"/><stop offset="1" stop-color="#8A4CEA"/></linearGradient><linearGradient id="paint30_linear" x1="73.239" y1="18.427" x2="81.719" y2="25.182" gradientUnits="userSpaceOnUse"><stop stop-color="#9F27F8"/><stop offset="1" stop-color="#5F1397"/></linearGradient><linearGradient id="paint31_linear" x1="80.843" y1="23.066" x2="86.446" y2="27.349" gradientUnits="userSpaceOnUse"><stop stop-color="#9F27F8"/><stop offset="1" stop-color="#5F1397"/></linearGradient><linearGradient id="paint32_linear" x1="68.858" y1="15.003" x2="77.437" y2="21.688" gradientUnits="userSpaceOnUse"><stop stop-color="#9F27F8"/><stop offset="1" stop-color="#5F1397"/></linearGradient><linearGradient id="paint33_linear" x1="66.525" y1="12.926" x2="74.051" y2="18.876" gradientUnits="userSpaceOnUse"><stop stop-color="#9F27F8"/><stop offset="1" stop-color="#5F1397"/></linearGradient><clipPath id="clip0"><path fill="#fff" transform="matrix(-1 0 0 1 160 0)" d="M0 0h160v291H0z"/></clipPath></defs></svg>