<svg width="99" height="101" fill="none" xmlns="http://www.w3.org/2000/svg"><path d="M43.742 75.746h-9.23c-3.385 0-6.13 2.716-6.13 6.068v6.756h42.234v-6.756c0-3.352-2.745-6.068-6.13-6.068H43.741z" fill="url(#paint0_linear)"/><path d="M96.365 13.854c-3.172-4.92-8.733-7.628-15.654-7.628H18.288c-6.923 0-12.481 2.706-15.652 7.628C-.792 19.17-.88 26.22 2.395 33.204c6.019 12.828 25.004 17.105 25.81 17.28l1.847.404h38.895l1.85-.402c.805-.175 19.792-4.452 25.807-17.28 3.274-6.986 3.186-14.036-.24-19.352zM90.92 30.59c-2.412 5.14-8.048 8.615-12.353 10.623a49.578 49.578 0 01-4.899 1.97l-48.334.002h-.002a50.95 50.95 0 01-4.899-1.972c-4.302-2.008-9.94-5.484-12.352-10.623-2.356-5.02-2.414-9.903-.162-13.396 1.98-3.072 5.664-4.762 10.37-4.762H80.71c4.706 0 8.389 1.69 10.37 4.762 2.252 3.491 2.194 8.376-.161 13.396z" fill="url(#paint1_linear)"/><path d="M53.889 75.746l-.01-6.022c-.006-4.332 2.262-8.386 6.035-10.582 12.015-6.989 20.615-25.725 20.615-47.746V0H18.467v11.396c0 22.02 8.602 40.76 20.618 47.746 3.773 2.196 6.043 6.248 6.035 10.58l-.008 6.024 5.014 5.139 3.763-5.139z" fill="url(#paint2_linear)"/><path d="M47.404 69.724l-.005 6.022h-2.287l.008-6.022c.006-4.332-2.264-8.386-6.035-10.58-12.016-6.989-20.616-25.727-20.616-47.748V0h16.183v11.396c0 22.02 4.118 40.757 9.866 47.746 1.803 2.196 2.89 6.25 2.886 10.581z" fill="url(#paint3_linear)"/><path d="M47.888 75.746H34.512c-3.385 0-6.13 2.716-6.13 6.068v6.756h13.375v-6.756c0-3.352 2.747-6.068 6.13-6.068z" fill="url(#paint4_linear)"/><path d="M42.148 85.26H26.016c-1.923 0-3.483 1.543-3.483 3.448V101h53.934V88.709c0-1.904-1.558-3.449-3.484-3.449H56.85" fill="#5669A9"/><path d="M30.196 85.26h-4.18c-1.923 0-3.483 1.543-3.483 3.448V101h4.179V88.709c0-1.904 1.558-3.449 3.484-3.449z" fill="#3B4547"/><defs><linearGradient id="paint0_linear" x1="29.524" y1="82.227" x2="67.651" y2="82.83" gradientUnits="userSpaceOnUse"><stop stop-color="#E2D0FF"/><stop offset="1" stop-color="#8A4CEA"/></linearGradient><linearGradient id="paint1_linear" x1="109.987" y1="19.504" x2="94.507" y2="52.406" gradientUnits="userSpaceOnUse"><stop stop-color="#9F27F8"/><stop offset="1" stop-color="#5F1397"/></linearGradient><linearGradient id="paint2_linear" x1="20.145" y1="40.876" x2="76.185" y2="41.082" gradientUnits="userSpaceOnUse"><stop stop-color="#E2D0FF"/><stop offset="1" stop-color="#8A4CEA"/></linearGradient><linearGradient id="paint3_linear" x1="50.615" y1="22.52" x2="28.605" y2="30.582" gradientUnits="userSpaceOnUse"><stop stop-color="#9F27F8"/><stop offset="1" stop-color="#5F1397"/></linearGradient><linearGradient id="paint4_linear" x1="50.053" y1="79.559" x2="44.671" y2="87.407" gradientUnits="userSpaceOnUse"><stop stop-color="#9F27F8"/><stop offset="1" stop-color="#5F1397"/></linearGradient></defs></svg>