<svg width="87" height="154" fill="none" xmlns="http://www.w3.org/2000/svg"><path d="M34.838 37.361h16.513l5.04 91.52h-26.65l5.097-91.52z" fill="url(#paint0_linear)"/><path d="M29.746 128.881l5.092-91.52h16.513l.609 11.1c-3.554 1.984-8.245 6.182-10.33 14.908-3.549 14.882 7.394 23.48 7.394 23.48s-7.461 10.542-5.795 42.036c-3.422-.004-6.584-.004-13.483-.004z" fill="url(#paint1_linear)"/><path d="M3.565 0h79.063c1.918 0 3.469 1.562 3.469 3.494v1.923h-86V3.494C.097 1.562 1.647 0 3.565 0z" fill="url(#paint2_linear)"/><path d="M84.017 5.413c0 19.792-14.552 37.172-33.638 38.623-3.63.275-10.93.236-14.565 0C16.715 42.791 2.176 25.209 2.176 5.413h81.841z" fill="url(#paint3_linear)"/><path d="M16.32 5.413c-.35 7.752 1.09 26.497 22.58 30.012 13.15 2.155 27.838-2.227 37.583-6.533-6.085 8.482-15.378 14.328-26.108 15.144-3.63.275-10.93.236-14.565 0C16.711 42.791 2.172 25.209 2.172 5.413h14.147z" fill="url(#paint4_linear)"/><path d="M29.887 128.881h26.42c2.944 0 5.326 2.403 5.326 5.365v.369H24.56v-.369c0-2.966 2.387-5.365 5.327-5.365z" fill="url(#paint5_linear)"/><path d="M63.231 134.615v17.552H22.962v-17.552h40.269z" fill="#5669A9"/><path d="M22.962 152.167v-17.552h16.15s-8.514 1.795-9.583 7.697c-.49 2.708-.418 6.524-.2 9.86-3.056-.005-5.374-.005-6.367-.005z" fill="#3B4547"/><path d="M22.067 152.167h42.059c.89 0 1.61.726 1.61 1.623v.214H20.461v-.214a1.61 1.61 0 011.606-1.623z" fill="url(#paint6_linear)"/><path d="M29.691 75.628c.068.516.793.898.912 1.391.124.502-.34 1.18-.166 1.657.179.485.971.695 1.197 1.15.23.46-.072 1.228.205 1.653.281.43 1.1.46 1.423.85.324.395.2 1.21.567 1.567.366.356 1.172.201 1.576.51.405.314.46 1.138.895 1.4.435.266 1.185-.069 1.65.146.46.214.698 1.004 1.18 1.167.481.16 1.137-.33 1.64-.227.495.103.904.82 1.41.871.504.047 1.036-.58 1.548-.592.502-.009 1.056.596 1.568.532.511-.069.89-.798 1.38-.919.499-.124 1.172.344 1.645.172.482-.18.69-.978 1.142-1.206.456-.232 1.219.073 1.64-.206.427-.283.457-1.108.844-1.434.392-.326 1.202-.201 1.556-.57.353-.37.196-1.181.507-1.585.311-.407 1.13-.463 1.39-.9.263-.439-.07-1.194.144-1.662.213-.464.997-.704 1.159-1.19.158-.484-.328-1.145-.226-1.652.102-.498.814-.91.865-1.42.047-.507-.575-1.043-.588-1.559-.008-.506.593-1.064.529-1.58-.069-.514-.793-.896-.912-1.39-.124-.502.34-1.18.17-1.657-.179-.485-.971-.695-1.197-1.15-.23-.46.072-1.228-.205-1.653-.281-.43-1.1-.46-1.423-.85-.324-.395-.2-1.21-.567-1.567-.366-.356-1.172-.201-1.572-.51-.405-.314-.46-1.138-.895-1.4-.435-.266-1.185.069-1.65-.146-.46-.214-.698-1.004-1.18-1.167-.481-.159-1.137.33-1.64.227-.494-.103-.904-.82-1.41-.871-.503-.047-1.036.58-1.547.592-.503.009-1.057-.596-1.569-.532-.51.069-.89.799-1.38.919-.499.124-1.172-.344-1.645-.172-.482.18-.69.979-1.142 1.206-.456.232-1.219-.073-1.64.206-.427.284-.456 1.108-.844 1.434-.392.326-1.202.202-1.556.57-.353.37-.196 1.181-.507 1.585-.31.407-1.129.463-1.389.901-.264.438.068 1.193-.145 1.661-.213.464-.997.704-1.159 1.19-.157.484.328 1.145.226 1.652-.102.498-.814.91-.865 1.42-.047.507.575 1.044.588 1.559 0 .506-.605 1.064-.537 1.58z" fill="url(#paint7_linear)"/><path d="M29.576 73.813c0 .52.67.996.724 1.498.056.515-.49 1.129-.379 1.622.115.503.874.816 1.04 1.297.17.485-.23 1.206-.009 1.665.222.464 1.032.597 1.3 1.03.273.434.043 1.228.358 1.627.32.4 1.138.352 1.496.713.358.36.31 1.185.707 1.507.396.317 1.185.09 1.615.36.43.27.563 1.086 1.023 1.31.456.223 1.172-.181 1.653-.01.477.168.788.932 1.287 1.048.49.112 1.1-.442 1.61-.382.5.056.972.73 1.488.73s.989-.674 1.487-.73c.511-.056 1.12.494 1.61.382.5-.116.81-.88 1.288-1.047.481-.172 1.197.231 1.653.008.46-.223.592-1.038 1.023-1.309.43-.275 1.219-.043 1.615-.36.396-.322.35-1.147.707-1.507.358-.36 1.176-.314 1.496-.713.315-.399.09-1.193.358-1.627.268-.433 1.078-.566 1.3-1.03.221-.459-.18-1.18-.009-1.665.166-.48.925-.794 1.04-1.297.11-.493-.44-1.107-.38-1.622.056-.502.725-.979.725-1.498 0-.52-.67-.996-.725-1.498-.055-.515.49-1.13.38-1.623-.115-.502-.874-.815-1.04-1.296-.17-.485.23-1.206.008-1.665-.221-.464-1.03-.597-1.3-1.03-.272-.434-.042-1.228-.357-1.627-.32-.4-1.138-.352-1.496-.713-.358-.36-.31-1.185-.707-1.507-.396-.317-1.185-.09-1.615-.36-.43-.27-.563-1.086-1.023-1.31-.456-.223-1.172.18-1.653.01-.477-.168-.789-.932-1.287-1.048-.49-.112-1.1.442-1.61.382-.5-.056-.972-.73-1.488-.73s-.989.674-1.487.73c-.512.056-1.12-.494-1.61-.382-.5.116-.81.88-1.288 1.047-.481.172-1.197-.232-1.653-.008-.46.223-.593 1.038-1.023 1.309-.43.275-1.219.043-1.615.36-.396.322-.35 1.146-.707 1.507-.358.36-1.176.313-1.496.712-.315.4-.09 1.194-.358 1.627-.268.434-1.078.567-1.3 1.03-.221.46.18 1.181.009 1.666-.166.48-.925.794-1.04 1.296-.11.494.44 1.108.38 1.623-.056.502-.725.978-.725 1.498z" fill="url(#paint8_linear)"/><path d="M43.489 86.845c7.133 0 12.937-5.847 12.937-13.032 0-7.186-5.804-13.032-12.937-13.032-7.134 0-12.937 5.846-12.937 13.032 0 7.185 5.803 13.032 12.937 13.032z" fill="url(#paint9_linear)"/><path d="M31.289 73.813c0 6.786 5.459 12.285 12.196 12.285 6.736 0 12.195-5.499 12.195-12.285 0-6.787-5.459-12.285-12.195-12.285-6.733 0-12.196 5.498-12.196 12.285z" fill="url(#paint10_linear)"/><path d="M32.968 73.813c0 5.85 4.708 10.593 10.516 10.593s10.517-4.743 10.517-10.593-4.709-10.594-10.517-10.594-10.516 4.743-10.516 10.594z" fill="url(#paint11_linear)"/><path d="M43.45 83.355l8.898-13.568a.436.436 0 00-.12-.597.425.425 0 00-.592.12L42.74 82.88a.436.436 0 00.12.596c.2.133.464.078.591-.12z" fill="url(#paint12_linear)"/><path d="M40.105 82.56l10.227-15.293a.43.43 0 00-.115-.597.424.424 0 00-.592.116L39.398 82.08a.43.43 0 00.115.597c.196.133.46.081.592-.116z" fill="url(#paint13_linear)"/><path d="M37.28 81.226l8.842-12.719a.426.426 0 00-.106-.596.42.42 0 00-.593.107l-8.842 12.719a.426.426 0 10.7.489z" fill="url(#paint14_linear)"/><path d="M40.097 72.057l4.742-6.546a.43.43 0 00-.093-.6.422.422 0 00-.597.094l-4.743 6.546a.43.43 0 00.094.6.423.423 0 00.597-.094z" fill="url(#paint15_linear)"/><defs><linearGradient id="paint0_linear" x1="55.671" y1="83.611" x2="31.607" y2="83.645" gradientUnits="userSpaceOnUse"><stop stop-color="#E2D0FF"/><stop offset="1" stop-color="#8A4CEA"/></linearGradient><linearGradient id="paint1_linear" x1="27.281" y1="64.572" x2="45.46" y2="68.803" gradientUnits="userSpaceOnUse"><stop stop-color="#9F27F8"/><stop offset="1" stop-color="#5F1397"/></linearGradient><linearGradient id="paint2_linear" x1="83.772" y1="2.738" x2="-6.322" y2="7.872" gradientUnits="userSpaceOnUse"><stop stop-color="#5D28B0"/><stop offset="1" stop-color="#8A4CEA"/></linearGradient><linearGradient id="paint3_linear" x1="81.805" y1="25.028" x2="7.911" y2="25.776" gradientUnits="userSpaceOnUse"><stop stop-color="#E2D0FF"/><stop offset="1" stop-color="#8A4CEA"/></linearGradient><linearGradient id="paint4_linear" x1="-6.076" y1="16.953" x2="8.595" y2="43.885" gradientUnits="userSpaceOnUse"><stop stop-color="#9F27F8"/><stop offset="1" stop-color="#5F1397"/></linearGradient><linearGradient id="paint5_linear" x1="20.445" y1="130.586" x2="21.257" y2="135.615" gradientUnits="userSpaceOnUse"><stop stop-color="#9F27F8"/><stop offset="1" stop-color="#5F1397"/></linearGradient><linearGradient id="paint6_linear" x1="15.435" y1="152.713" x2="15.505" y2="154.364" gradientUnits="userSpaceOnUse"><stop stop-color="#9F27F8"/><stop offset="1" stop-color="#5F1397"/></linearGradient><linearGradient id="paint7_linear" x1="56.596" y1="73.96" x2="31.577" y2="74.079" gradientUnits="userSpaceOnUse"><stop stop-color="#E2D0FF"/><stop offset="1" stop-color="#8A4CEA"/></linearGradient><linearGradient id="paint8_linear" x1="26.488" y1="68.132" x2="39.082" y2="80.12" gradientUnits="userSpaceOnUse"><stop stop-color="#9F27F8"/><stop offset="1" stop-color="#5F1397"/></linearGradient><linearGradient id="paint9_linear" x1="55.727" y1="73.953" x2="32.363" y2="74.064" gradientUnits="userSpaceOnUse"><stop stop-color="#E2D0FF"/><stop offset="1" stop-color="#8A4CEA"/></linearGradient><linearGradient id="paint10_linear" x1="28.582" y1="68.833" x2="39.622" y2="79.341" gradientUnits="userSpaceOnUse"><stop stop-color="#9F27F8"/><stop offset="1" stop-color="#5F1397"/></linearGradient><linearGradient id="paint11_linear" x1="53.432" y1="73.926" x2="34.44" y2="74.017" gradientUnits="userSpaceOnUse"><stop stop-color="#E2D0FF"/><stop offset="1" stop-color="#8A4CEA"/></linearGradient><linearGradient id="paint12_linear" x1="41.587" y1="73.408" x2="47.511" y2="77.246" gradientUnits="userSpaceOnUse"><stop stop-color="#9F27F8"/><stop offset="1" stop-color="#5F1397"/></linearGradient><linearGradient id="paint13_linear" x1="38.094" y1="71.399" x2="44.767" y2="75.788" gradientUnits="userSpaceOnUse"><stop stop-color="#9F27F8"/><stop offset="1" stop-color="#5F1397"/></linearGradient><linearGradient id="paint14_linear" x1="35.427" y1="71.869" x2="41.122" y2="75.769" gradientUnits="userSpaceOnUse"><stop stop-color="#9F27F8"/><stop offset="1" stop-color="#5F1397"/></linearGradient><linearGradient id="paint15_linear" x1="38.702" y1="67.029" x2="41.869" y2="69.324" gradientUnits="userSpaceOnUse"><stop stop-color="#9F27F8"/><stop offset="1" stop-color="#5F1397"/></linearGradient></defs></svg>