<svg width="146" height="194" fill="none" xmlns="http://www.w3.org/2000/svg"><g clip-path="url(#clip0)"><path d="M66.213 144.198l-.21-.443h13.999c-.04.178-4.661 8.166 0 17.405H66.003a19.307 19.307 0 00.21-16.962z" fill="url(#paint0_linear)"/><path d="M65.998 161.16a19.273 19.273 0 00.21-16.962l-.21-.443h14c-.016.066-.614 1.13-1.171 2.892-2.474.422-5.903 1.379-7.386 3.548-1.605 2.352-1.783 7.626-1.717 10.965h-3.726z" fill="url(#paint1_linear)"/><path d="M44.736 57.82h-9.128c-17.377 0-31.514-15.094-31.514-33.645V8.135c0-5.015 7.804-5.03 7.804 0v3.075c0 3.13 2.387 5.676 5.32 5.676h11.276v-4.373H17.219c-.675 0-1.222-.586-1.222-1.303V8.134C15.997-2.703 0-2.713 0 8.135v16.04C0 45.14 15.972 62.198 35.608 62.198H52.25a37.292 37.292 0 01-7.514-4.378z" fill="url(#paint2_linear)"/><path d="M101.259 57.82h9.133c17.377 0 31.514-15.094 31.514-33.645V8.135c0-5.015-7.804-5.03-7.804 0v3.074c0 3.131-2.387 5.677-5.321 5.677h-11.275v-4.373h11.275c.675 0 1.222-.586 1.222-1.304V8.135c0-10.843 15.997-10.854 15.997 0v16.04c0 20.964-15.972 38.022-35.608 38.022H93.751a37.266 37.266 0 007.508-4.378z" fill="url(#paint3_linear)"/><path d="M35.608 57.82h9.128a37.534 37.534 0 007.514 4.378H40.417a47.228 47.228 0 01-5.27-4.378h.46z" fill="url(#paint4_linear)"/><path d="M20.934 12.508h7.56v4.373h-7.56v-4.373z" fill="url(#paint5_linear)"/><path d="M117.501 12.508h7.56v4.373h-7.56v-4.373z" fill="url(#paint6_linear)"/><path d="M110.392 57.82c.153 0 .307 0 .46-.005a46.79 46.79 0 01-5.269 4.378H93.751a37.43 37.43 0 007.513-4.378h9.128v.005z" fill="url(#paint7_linear)"/><path d="M28.887.27h88.221c4.037 0 7.313 3.263 7.313 7.285H21.578c0-4.027 3.271-7.285 7.31-7.285z" fill="url(#paint8_linear)"/><path d="M119.315 7.55v16.936c0 21.259-16.431 38.714-37.381 40.542H64.07C43.12 63.2 26.689 45.744 26.689 24.486V7.549h92.626z" fill="url(#paint9_linear)"/><path d="M38.9 7.55v9.381c0 21.264 16.37 39.626 37.381 40.542 4.37.189 13.299.199 17.863 0 4.073-.178 7.953-1.298 11.586-2.738a41.02 41.02 0 01-23.801 10.288H64.066C43.116 63.195 26.684 45.74 26.684 24.48V7.549H38.9z" fill="url(#paint10_linear)"/><path d="M81.212 74.686V65.01H64.787v9.675h16.425z" fill="url(#paint11_linear)"/><path d="M85.215 74.726v8.43h-24.43v-8.43h24.43z" fill="url(#paint12_linear)"/><path d="M59.011 83.16H86.99a2.358 2.358 0 012.361 2.353v1.843H56.645v-1.843a2.359 2.359 0 012.366-2.352z" fill="url(#paint13_linear)"/><path d="M92.503 87.356l-12.797 43.937H66.15L53.497 87.356h39.006z" fill="url(#paint14_linear)"/><path d="M79.706 131.293h-1.36c-5.73-5.498-9.511-14.992-9.511-25.774 0-6.79 1.502-13.073 4.042-18.163h19.626l-12.797 43.937z" fill="url(#paint15_linear)"/><path d="M66.243 131.293h13.509c3.45 0 6.25 2.759 6.281 6.175h-26.07c.035-3.416 2.83-6.175 6.28-6.175z" fill="url(#paint16_linear)"/><path d="M59.962 137.468h26.071c.046 3.431-2.765 6.292-6.281 6.292H66.244c-3.517.005-6.328-2.856-6.282-6.292z" fill="url(#paint17_linear)"/><path d="M60.493 161.16h25.014a4.438 4.438 0 014.446 4.429v1.507H56.047v-1.507c0-2.443 1.988-4.429 4.447-4.429z" fill="url(#paint18_linear)"/><path d="M96.587 167.101v22.384h-47.18v-22.384h47.18z" fill="url(#paint19_linear)"/><path d="M96.587 187.632a62.057 62.057 0 01-5.096.203c-18.414 0-33.338-7.921-33.338-17.69a9.7 9.7 0 01.495-3.049h37.944v20.536h-.005z" fill="url(#paint20_linear)"/><path d="M48.6 189.485h48.795a4.085 4.085 0 014.094 4.077v.433H44.501v-.433a4.092 4.092 0 014.1-4.077z" fill="url(#paint21_linear)"/></g><defs><linearGradient id="paint0_linear" x1="79.624" y1="152.551" x2="66.983" y2="152.6" gradientUnits="userSpaceOnUse"><stop stop-color="#E2D0FF"/><stop offset="1" stop-color="#8A4CEA"/></linearGradient><linearGradient id="paint1_linear" x1="70.014" y1="159.093" x2="77.236" y2="150.309" gradientUnits="userSpaceOnUse"><stop offset=".109" stop-color="#9F27F8"/><stop offset="1" stop-color="#5F1397"/></linearGradient><linearGradient id="paint2_linear" x1="50.837" y1="31.433" x2="3.657" y2="31.624" gradientUnits="userSpaceOnUse"><stop stop-color="#E2D0FF"/><stop offset="1" stop-color="#8A4CEA"/></linearGradient><linearGradient id="paint3_linear" x1="144.588" y1="31.431" x2="97.408" y2="31.622" gradientUnits="userSpaceOnUse"><stop stop-color="#E2D0FF"/><stop offset="1" stop-color="#8A4CEA"/></linearGradient><linearGradient id="paint4_linear" x1="33.25" y1="59.121" x2="34.232" y2="62.798" gradientUnits="userSpaceOnUse"><stop stop-color="#9F27F8"/><stop offset="1" stop-color="#5F1397"/></linearGradient><linearGradient id="paint5_linear" x1="20.096" y1="13.808" x2="21.836" y2="16.692" gradientUnits="userSpaceOnUse"><stop stop-color="#9F27F8"/><stop offset="1" stop-color="#5F1397"/></linearGradient><linearGradient id="paint6_linear" x1="116.662" y1="13.808" x2="118.403" y2="16.692" gradientUnits="userSpaceOnUse"><stop stop-color="#9F27F8"/><stop offset="1" stop-color="#5F1397"/></linearGradient><linearGradient id="paint7_linear" x1="91.853" y1="59.116" x2="92.834" y2="62.793" gradientUnits="userSpaceOnUse"><stop stop-color="#9F27F8"/><stop offset="1" stop-color="#5F1397"/></linearGradient><linearGradient id="paint8_linear" x1="121.642" y1="3.951" x2="29.2" y2="10.216" gradientUnits="userSpaceOnUse"><stop stop-color="#9A71DA"/><stop offset="1" stop-color="#8A4CEA"/></linearGradient><linearGradient id="paint9_linear" x1="116.812" y1="36.597" x2="33.176" y2="37.244" gradientUnits="userSpaceOnUse"><stop stop-color="#E2D0FF"/><stop offset="1" stop-color="#8A4CEA"/></linearGradient><linearGradient id="paint10_linear" x1="17.91" y1="24.637" x2="42.807" y2="57.47" gradientUnits="userSpaceOnUse"><stop stop-color="#9F27F8"/><stop offset="1" stop-color="#5F1397"/></linearGradient><linearGradient id="paint11_linear" x1="62.964" y1="71.809" x2="66.847" y2="65.489" gradientUnits="userSpaceOnUse"><stop stop-color="#9F27F8"/><stop offset="1" stop-color="#5F1397"/></linearGradient><linearGradient id="paint12_linear" x1="84.555" y1="78.986" x2="62.499" y2="79.293" gradientUnits="userSpaceOnUse"><stop stop-color="#E2D0FF"/><stop offset="1" stop-color="#8A4CEA"/></linearGradient><linearGradient id="paint13_linear" x1="88.466" y1="85.281" x2="58.975" y2="86.385" gradientUnits="userSpaceOnUse"><stop stop-color="#E2D0FF"/><stop offset="1" stop-color="#8A4CEA"/></linearGradient><linearGradient id="paint14_linear" x1="49.167" y1="100.419" x2="68.68" y2="117.029" gradientUnits="userSpaceOnUse"><stop stop-color="#9F27F8"/><stop offset="1" stop-color="#5F1397"/></linearGradient><linearGradient id="paint15_linear" x1="91.864" y1="109.56" x2="70.491" y2="109.615" gradientUnits="userSpaceOnUse"><stop stop-color="#E2D0FF"/><stop offset="1" stop-color="#8A4CEA"/></linearGradient><linearGradient id="paint16_linear" x1="85.329" y1="134.414" x2="61.796" y2="134.891" gradientUnits="userSpaceOnUse"><stop stop-color="#E2D0FF"/><stop offset="1" stop-color="#8A4CEA"/></linearGradient><linearGradient id="paint17_linear" x1="57.068" y1="139.339" x2="58.408" y2="144.663" gradientUnits="userSpaceOnUse"><stop stop-color="#9F27F8"/><stop offset="1" stop-color="#5F1397"/></linearGradient><linearGradient id="paint18_linear" x1="89.037" y1="164.16" x2="58.443" y2="164.999" gradientUnits="userSpaceOnUse"><stop stop-color="#E2D0FF"/><stop offset="1" stop-color="#8A4CEA"/></linearGradient><linearGradient id="paint19_linear" x1="62.943" y1="186.827" x2="68.351" y2="169.59" gradientUnits="userSpaceOnUse"><stop offset=".109" stop-color="#9F27F8"/><stop offset="1" stop-color="#5F1397"/></linearGradient><linearGradient id="paint20_linear" x1="95.553" y1="177.577" x2="60.845" y2="177.886" gradientUnits="userSpaceOnUse"><stop stop-color="#E2D0FF"/><stop offset="1" stop-color="#8A4CEA"/></linearGradient><linearGradient id="paint21_linear" x1="99.949" y1="191.764" x2="48.678" y2="194.874" gradientUnits="userSpaceOnUse"><stop stop-color="#E2D0FF"/><stop offset="1" stop-color="#8A4CEA"/></linearGradient><clipPath id="clip0"><path fill="#fff" transform="matrix(-1 0 0 1 146 0)" d="M0 0h146v194H0z"/></clipPath></defs></svg>