<svg width="62" height="58" fill="none" xmlns="http://www.w3.org/2000/svg"><rect width="61.412" height="58" rx="13" fill="url(#paint0_linear)"/><g filter="url(#filter0_d)"><path d="M41.532 29.407c-.755-.939-1.892-1.584-3.414-1.935 1.938-.952 2.79-2.569 2.555-4.85-.078-.826-.315-1.543-.712-2.15a4.405 4.405 0 00-1.61-1.467 9.07 9.07 0 00-2.204-.846 17.984 17.984 0 00-2.73-.422V13h-3.004v4.605c-.52 0-1.314.012-2.38.037V13h-3.005v4.736c-.43.013-1.06.02-1.892.02L19 17.736v3.083h2.165c.989 0 1.568.426 1.736 1.277v5.395c.131 0 .235.006.313.019H22.9v7.555c-.103.639-.48.959-1.131.959h-2.165L19 39.463h3.901c.248 0 .605.003 1.073.008.468.007.82.01 1.053.01v4.792h3.005v-4.736c.546.013 1.34.019 2.38.019v4.717h3.004v-4.792a24.23 24.23 0 002.839-.282 11.867 11.867 0 002.37-.65c.754-.293 1.385-.66 1.892-1.099.508-.438.926-.996 1.258-1.672.332-.677.543-1.46.634-2.35.17-1.741-.123-3.082-.877-4.022zM28.09 21.026c.09 0 .348-.004.77-.01.424-.006.775-.012 1.054-.019.28-.005.657.01 1.132.047.475.038.874.088 1.2.15.325.063.683.166 1.072.31.39.145.703.32.936.526.235.207.433.47.595.79.163.319.244.686.244 1.099 0 .35-.058.67-.175.96a1.822 1.822 0 01-.527.723 5.316 5.316 0 01-.722.507c-.247.144-.563.26-.947.348-.383.087-.718.156-1.004.206-.286.05-.644.085-1.073.104a68.55 68.55 0 01-.975.037c-.222.006-.524.006-.908 0l-.673-.009v-5.77zm8.203 12.8a2.66 2.66 0 01-.477.752 2.703 2.703 0 01-.771.563 6.764 6.764 0 01-.927.395c-.299.1-.66.188-1.082.263-.423.075-.793.129-1.112.16-.319.032-.7.057-1.141.075a26.509 26.509 0 01-1.97.019c-.378-.006-.619-.01-.723-.01V29.69c.104 0 .413-.006.926-.019a53.53 53.53 0 011.259-.018c.325 0 .774.018 1.347.056.572.038 1.053.094 1.443.169.39.075.816.19 1.278.348.462.156.836.347 1.122.573.286.226.527.513.722.864.195.351.293.752.293 1.203-.002.352-.063.67-.187.96z" fill="#fff"/></g><defs><linearGradient id="paint0_linear" x1="13.647" y1="3.412" x2="47.765" y2="58" gradientUnits="userSpaceOnUse"><stop stop-color="#FFA131"/><stop offset="1" stop-color="#D67B0E"/></linearGradient><filter id="filter0_d" x="12.865" y="8.73" width="39.456" height="47.274" filterUnits="userSpaceOnUse" color-interpolation-filters="sRGB"><feFlood flood-opacity="0" result="BackgroundImageFix"/><feColorMatrix in="SourceAlpha" values="0 0 0 0 0 0 0 0 0 0 0 0 0 0 0 0 0 0 127 0"/><feOffset dx="1.865" dy="3.73"/><feGaussianBlur stdDeviation="4"/><feColorMatrix values="0 0 0 0 0.204167 0 0 0 0 0.0748611 0 0 0 0 0.0340278 0 0 0 0.11 0"/><feBlend in2="BackgroundImageFix" result="effect1_dropShadow"/><feBlend in="SourceGraphic" in2="effect1_dropShadow" result="shape"/></filter></defs></svg>