<svg width="62" height="58" fill="none" xmlns="http://www.w3.org/2000/svg"><rect width="61.551" height="58" rx="13" fill="url(#paint0_linear)"/><g clip-path="url(#clip0)" filter="url(#filter0_d)"><path d="M31.43 32.38l-9.784-4.656 9.784-17.07 9.783 17.07-9.784 4.656z" fill="#828384"/><path d="M31.43 10.653V32.38l9.783-4.655-9.783-17.072z" fill="#4F4F4F"/><path d="M31.43 47.773L21.306 30l10.123 4.838L41.555 30 31.429 47.773z" fill="#828384"/><path d="M31.43 23.345l-9.784 4.38 9.784 4.654 9.783-4.655-9.784-4.379z" fill="#141414"/><path d="M41.213 27.724l-9.783-4.379v9.035l9.783-4.656z" fill="#141414"/><path d="M41.554 30L31.43 34.838v12.935L41.554 30z" fill="#4F4F4F"/></g><defs><linearGradient id="paint0_linear" x1="30.776" y1="0" x2="30.776" y2="58" gradientUnits="userSpaceOnUse"><stop stop-color="#ECEFF0"/><stop offset="1" stop-color="#E7E9EA"/></linearGradient><clipPath id="clip0"><path fill="#fff" transform="translate(21.306 10.653)" d="M0 0h20.122v36.22H0z"/></clipPath><filter id="filter0_d" x="17.931" y="5.591" width="33.621" height="49.719" filterUnits="userSpaceOnUse" color-interpolation-filters="sRGB"><feFlood flood-opacity="0" result="BackgroundImageFix"/><feColorMatrix in="SourceAlpha" values="0 0 0 0 0 0 0 0 0 0 0 0 0 0 0 0 0 0 127 0"/><feOffset dx="3.375" dy="1.687"/><feGaussianBlur stdDeviation="3.375"/><feColorMatrix values="0 0 0 0 0 0 0 0 0 0 0 0 0 0 0 0 0 0 0.25 0"/><feBlend in2="BackgroundImageFix" result="effect1_dropShadow"/><feBlend in="SourceGraphic" in2="effect1_dropShadow" result="shape"/></filter></defs></svg>