<svg width="31" height="31" fill="none" xmlns="http://www.w3.org/2000/svg"><path d="M15.101 30.878c8.298 0 15.024-6.912 15.024-15.439C30.125 6.912 23.4 0 15.101 0 6.804 0 .077 6.912.077 15.439c0 8.527 6.727 15.439 15.024 15.439z" fill="url(#paint0_linear)"/><path d="M17.828 9.546h1.567V6.74a19.68 19.68 0 00-2.284-.124c-2.26 0-3.808 1.46-3.808 4.146v2.47H10.81v3.137h2.493v7.892h3.058V16.37h2.393l.38-3.137H16.36v-2.16c.001-.907.238-1.527 1.468-1.527z" fill="#fff"/><defs><linearGradient id="paint0_linear" x1="15.101" y1="0" x2="15.101" y2="30.878" gradientUnits="userSpaceOnUse"><stop stop-color="#3C386D"/><stop offset="1" stop-color="#1D1B45"/></linearGradient></defs></svg>