<svg width="31" height="31" viewBox="0 0 31 31" fill="none" xmlns="http://www.w3.org/2000/svg">
<path d="M15.1013 30.8779C23.3989 30.8779 30.1254 23.9657 30.1254 15.439C30.1254 6.91226 23.3989 0 15.1013 0C6.80369 0 0.0771484 6.91226 0.0771484 15.439C0.0771484 23.9657 6.80369 30.8779 15.1013 30.8779Z" fill="url(#paint0_linear)"/>
<path d="M17.8275 9.54558H19.3948V6.74038C19.1246 6.70213 18.1942 6.61597 17.1115 6.61597C14.8513 6.61597 13.3034 8.07681 13.3034 10.7617V13.2327H10.8096V16.369H13.3034V24.2605H16.361V16.3697H18.754L19.1339 13.2334H16.3603V11.0726C16.361 10.1662 16.5984 9.54558 17.8275 9.54558Z" fill="white"/>
<defs>
<linearGradient id="paint0_linear" x1="15.1013" y1="0" x2="15.1013" y2="30.8779" gradientUnits="userSpaceOnUse">
<stop stop-color="#3C386D"/>
<stop offset="1" stop-color="#1D1B45"/>
</linearGradient>
</defs>
</svg>
