<svg width="31" height="31" fill="none" xmlns="http://www.w3.org/2000/svg"><path d="M15.103 30.878c8.298 0 15.024-6.912 15.024-15.439C30.127 6.912 23.401 0 15.103 0 6.806 0 .08 6.912.08 15.439c0 8.527 6.727 15.439 15.024 15.439z" fill="url(#paint0_linear)"/><path d="M19.041 6.506h-7.875c-2.622 0-4.755 2.192-4.755 4.886v8.093c0 2.694 2.133 4.886 4.755 4.886h7.875c2.622 0 4.755-2.192 4.755-4.886v-8.093c0-2.694-2.133-4.886-4.755-4.886zm3.534 12.979c0 2.002-1.586 3.63-3.534 3.63h-7.875c-1.948 0-3.534-1.628-3.534-3.63v-8.093c0-2.002 1.586-3.631 3.534-3.631h7.875c1.949 0 3.534 1.629 3.534 3.631v8.093z" fill="#fff" stroke="#FFFDFD" stroke-width=".193"/><path d="M15.103 10.916c-2.426 0-4.4 2.029-4.4 4.522 0 2.493 1.974 4.521 4.4 4.521s4.4-2.028 4.4-4.521-1.974-4.522-4.4-4.522zm0 7.877c-1.8 0-3.265-1.505-3.265-3.355s1.465-3.355 3.265-3.355 3.265 1.505 3.265 3.355-1.465 3.355-3.265 3.355z" fill="#fff" stroke="#FFFDFD" stroke-width=".193"/><path d="M20.47 8.822c-.592 0-1.073.494-1.073 1.102 0 .608.48 1.103 1.073 1.103.592 0 1.073-.495 1.073-1.103s-.481-1.102-1.073-1.102zm0 1.405a.299.299 0 01-.295-.303.3.3 0 01.295-.303.3.3 0 01.294.303.299.299 0 01-.294.303z" fill="#fff"/><defs><linearGradient id="paint0_linear" x1="15.103" y1="0" x2="15.103" y2="30.878" gradientUnits="userSpaceOnUse"><stop stop-color="#3C386D"/><stop offset="1" stop-color="#1D1B45"/></linearGradient></defs></svg>