<svg width="24" height="26" fill="none" xmlns="http://www.w3.org/2000/svg"><g clip-path="url(#clip0)"><path d="M23.925 17.97l-6.176 7.901a.33.33 0 01-.52 0l-6.176-7.9a.316.316 0 01-.002-.391.333.333 0 01.382-.106l4.09 1.59V2.223c0-.178.148-.32.328-.32h3.278c.18 0 .328.143.328.32v16.84l4.09-1.59a.332.332 0 01.381.106.319.319 0 01-.003.39zm-9.988-8.558a.321.321 0 00-.002-.39l-6.177-7.9a.33.33 0 00-.52 0l-6.176 7.9a.318.318 0 00-.002.39.331.331 0 00.382.106l4.09-1.589v16.838c0 .179.147.323.328.323h3.278c.18 0 .328-.144.328-.323V7.93l4.09 1.589a.33.33 0 00.381-.106z" fill="url(#paint0_linear)"/></g><defs><linearGradient id="paint0_linear" x1="12.494" y1=".996" x2="12.494" y2="25.997" gradientUnits="userSpaceOnUse"><stop stop-color="#72E8FC"/><stop offset="1" stop-color="#427DF7"/></linearGradient><clipPath id="clip0"><path fill="#fff" transform="translate(.993 .996)" d="M0 0h23v25H0z"/></clipPath></defs></svg>