<svg width="25" height="25" fill="none" xmlns="http://www.w3.org/2000/svg"><g clip-path="url(#clip0)"><path d="M12.993.996c-6.617 0-12 5.383-12 12s5.383 12 12 12 12-5.383 12-12-5.383-12-12-12zM18.7 19.203a.997.997 0 01-1.414 0l-5-5a.996.996 0 01-.293-.707v-6.5a1 1 0 112 0v6.086L18.7 17.79a.999.999 0 010 1.414z" fill="url(#paint0_linear)"/></g><defs><linearGradient id="paint0_linear" x1="12.993" y1=".996" x2="12.993" y2="24.996" gradientUnits="userSpaceOnUse"><stop stop-color="#72E8FC"/><stop offset="1" stop-color="#427DF7"/></linearGradient><clipPath id="clip0"><path fill="#fff" transform="translate(.993 .996)" d="M0 0h24v24H0z"/></clipPath></defs></svg>