<svg width="24" height="25" fill="none" xmlns="http://www.w3.org/2000/svg"><g clip-path="url(#clip0)"><path d="M22.884 13.305a.704.704 0 010-.621l.894-1.832a2.084 2.084 0 00-.898-2.766l-1.798-.955a.705.705 0 01-.365-.503l-.352-2.008a2.081 2.081 0 00-2.35-1.71l-2.016.286a.701.701 0 01-.59-.193l-1.463-1.417a2.08 2.08 0 00-2.905 0L9.578 3.004a.703.703 0 01-.59.192l-2.016-.285a2.081 2.081 0 00-2.35 1.71L4.27 6.627a.703.703 0 01-.365.503l-1.798.955a2.084 2.084 0 00-.899 2.767l.894 1.83a.704.704 0 010 .622l-.894 1.832a2.084 2.084 0 00.898 2.766l1.798.956a.704.704 0 01.365.502l.352 2.008a2.08 2.08 0 002.35 1.71l2.016-.285a.701.701 0 01.59.192l1.463 1.417a2.081 2.081 0 002.906 0l1.463-1.417a.703.703 0 01.59-.192l2.015.285a2.081 2.081 0 002.351-1.71l.352-2.008c.038-.216.17-.4.365-.503l1.798-.955a2.084 2.084 0 00.898-2.766l-.894-1.832zM9.728 6.765a2.54 2.54 0 012.535 2.539 2.54 2.54 0 01-2.535 2.537 2.54 2.54 0 01-2.535-2.537 2.54 2.54 0 012.535-2.538zM8.42 18.053a.69.69 0 01-.978 0 .692.692 0 010-.979l9.124-9.135a.692.692 0 01.977.979L8.42 18.051zm6.838 1.172a2.54 2.54 0 01-2.535-2.538 2.54 2.54 0 012.535-2.538 2.54 2.54 0 012.535 2.538 2.54 2.54 0 01-2.535 2.538z" fill="url(#paint0_linear)"/><path d="M15.258 15.534a1.154 1.154 0 000 2.307 1.154 1.154 0 000-2.307z" fill="url(#paint1_linear)"/><path d="M9.728 8.151a1.154 1.154 0 000 2.308 1.154 1.154 0 000-2.308z" fill="url(#paint2_linear)"/></g><defs><linearGradient id="paint0_linear" x1="12.493" y1=".995" x2="12.493" y2="24.995" gradientUnits="userSpaceOnUse"><stop stop-color="#72E8FC"/><stop offset="1" stop-color="#427DF7"/></linearGradient><linearGradient id="paint1_linear" x1="15.258" y1="15.534" x2="15.258" y2="17.841" gradientUnits="userSpaceOnUse"><stop stop-color="#72E8FC"/><stop offset="1" stop-color="#427DF7"/></linearGradient><linearGradient id="paint2_linear" x1="9.728" y1="8.151" x2="9.728" y2="10.459" gradientUnits="userSpaceOnUse"><stop stop-color="#72E8FC"/><stop offset="1" stop-color="#427DF7"/></linearGradient><clipPath id="clip0"><path fill="#fff" transform="translate(.993 .996)" d="M0 0h23v24H0z"/></clipPath></defs></svg>