<svg width="25" height="25" fill="none" xmlns="http://www.w3.org/2000/svg"><g clip-path="url(#clip0)"><path d="M12.993.996c-6.627 0-12 5.373-12 12s5.373 12 12 12 12-5.373 12-12-5.373-12-12-12zm3.447 16.731a3.86 3.86 0 01-2 1.284c-.346.094-.504.277-.484.637.015.355 0 .706-.005 1.062 0 .316-.163.484-.474.493-.202.006-.405.01-.607.01-.178 0-.356 0-.534-.005-.335-.005-.494-.197-.494-.523-.004-.257-.004-.518-.004-.775-.005-.573-.025-.593-.573-.682-.702-.113-1.393-.271-2.035-.583-.504-.246-.558-.37-.415-.903.109-.395.218-.79.341-1.18.089-.287.173-.415.326-.415.089 0 .203.044.356.123.71.37 1.466.578 2.261.677.134.015.267.024.4.024.37 0 .731-.069 1.082-.222.884-.385 1.022-1.407.276-2.02a3.609 3.609 0 00-.844-.493c-.775-.341-1.58-.598-2.311-1.037-1.185-.711-1.936-1.684-1.847-3.126.099-1.63 1.022-2.647 2.518-3.19.618-.223.623-.218.623-.86 0-.217-.005-.434.005-.657.014-.483.093-.567.577-.582h.563c.919 0 .919.04.924 1.032.005.73.005.73.73.844a6.429 6.429 0 011.6.48c.282.123.39.32.302.622-.128.444-.252.893-.39 1.333-.09.267-.173.39-.331.39a.793.793 0 01-.336-.104 5.05 5.05 0 00-2.538-.503 1.97 1.97 0 00-.677.138c-.77.336-.894 1.185-.237 1.709.331.266.711.454 1.101.617.682.281 1.363.553 2.01.908 2.035 1.136 2.588 3.719 1.141 5.477z" fill="url(#paint0_linear)"/></g><defs><linearGradient id="paint0_linear" x1="12.993" y1=".996" x2="12.993" y2="24.996" gradientUnits="userSpaceOnUse"><stop stop-color="#72E8FC"/><stop offset="1" stop-color="#427DF7"/></linearGradient><clipPath id="clip0"><path fill="#fff" transform="translate(.993 .996)" d="M0 0h24v24H0z"/></clipPath></defs></svg>