<svg width="28" height="28" fill="none" xmlns="http://www.w3.org/2000/svg"><g clip-path="url(#clip0)"><path d="M27.658 26.008l-7.963-7.962a11.03 11.03 0 002.471-6.963C22.166 4.973 17.194 0 11.083 0 4.973 0 0 4.972 0 11.084c0 6.11 4.972 11.083 11.083 11.083 2.637 0 5.058-.929 6.963-2.47l7.962 7.962a1.163 1.163 0 001.65 0 1.167 1.167 0 000-1.65zm-16.575-6.174c-4.825 0-8.75-3.925-8.75-8.75 0-4.826 3.925-8.75 8.75-8.75 4.826 0 8.75 3.924 8.75 8.75 0 4.825-3.925 8.75-8.75 8.75z" fill="#8400E3"/></g><defs><clipPath id="clip0"><path fill="#fff" d="M0 0h28v28H0z"/></clipPath></defs></svg>