<svg width="20" height="27" fill="none" xmlns="http://www.w3.org/2000/svg"><g clip-path="url(#clip0)" fill="#8400E3"><path d="M10 0C4.486 0 0 4.44 0 9.895c0 2.507 1.596 6.048 4.744 10.526a70.902 70.902 0 004.66 5.913L10 27l.597-.666a70.802 70.802 0 004.66-5.913C18.404 15.943 20 12.402 20 9.895 20 4.44 15.514 0 10 0zm3.955 19.507A71.774 71.774 0 0110 24.598a71.687 71.687 0 01-3.947-5.078c-2.916-4.15-4.458-7.478-4.458-9.625 0-4.586 3.77-8.317 8.405-8.317 4.634 0 8.404 3.731 8.404 8.317.001 2.145-1.538 5.47-4.449 9.612z"/><path d="M10 3.657c-3.254 0-5.902 2.62-5.902 5.84 0 3.22 2.648 5.84 5.902 5.84 3.255 0 5.902-2.62 5.902-5.84 0-3.22-2.647-5.84-5.902-5.84zm0 10.102c-2.374 0-4.306-1.912-4.306-4.262 0-2.35 1.932-4.262 4.306-4.262 2.375 0 4.307 1.912 4.307 4.262 0 2.35-1.931 4.262-4.307 4.262z"/></g><defs><clipPath id="clip0"><path fill="#fff" d="M0 0h20v27H0z"/></clipPath></defs></svg>