<svg width="25" height="27" fill="none" xmlns="http://www.w3.org/2000/svg"><path d="M20.738 8.438c-2.348 0-4.26-1.893-4.26-4.22C16.477 1.893 18.39 0 20.737 0 23.088 0 25 1.892 25 4.219c0 2.326-1.913 4.218-4.262 4.218zm0-6.75c-1.409 0-2.556 1.134-2.556 2.53 0 1.397 1.148 2.532 2.556 2.532 1.41 0 2.557-1.135 2.557-2.531 0-1.397-1.147-2.532-2.557-2.532zm0 25.312c-2.348 0-4.26-1.892-4.26-4.219 0-2.326 1.912-4.218 4.26-4.218 2.35 0 4.262 1.892 4.262 4.218C25 25.108 23.087 27 20.738 27zm0-6.75c-1.409 0-2.556 1.135-2.556 2.531 0 1.397 1.148 2.532 2.556 2.532 1.41 0 2.557-1.135 2.557-2.532 0-1.396-1.147-2.531-2.557-2.531zM4.261 17.719C1.912 17.719 0 15.827 0 13.5c0-2.327 1.912-4.219 4.261-4.219 2.35 0 4.262 1.892 4.262 4.219 0 2.327-1.913 4.219-4.262 4.219zm0-6.75c-1.409 0-2.556 1.135-2.556 2.531 0 1.396 1.147 2.531 2.556 2.531 1.41 0 2.557-1.135 2.557-2.531 0-1.396-1.148-2.531-2.557-2.531z" fill="#8400E3"/><path d="M7.228 12.679a.851.851 0 01-.74-.425.838.838 0 01.317-1.15L17.35 5.15a.852.852 0 011.161.315.838.838 0 01-.318 1.151L7.648 12.57a.863.863 0 01-.42.11zm10.543 9.281a.847.847 0 01-.42-.111L6.807 15.897a.839.839 0 01-.318-1.15.853.853 0 011.161-.315l10.544 5.95a.84.84 0 01.319 1.151.855.855 0 01-.742.427z" fill="#8400E3"/></svg>