<svg width="213" height="35" fill="none" xmlns="http://www.w3.org/2000/svg"><path d="M8.76 13.03c2.24 0 4.08.71 5.52 2.13 1.44 1.42 2.16 3.25 2.16 5.49 0 2.2-.72 4.03-2.16 5.49-1.42 1.44-3.26 2.16-5.52 2.16s-4.1-.72-5.52-2.16c-1.4-1.44-2.1-3.35-2.1-5.73V6.37h3.48v13.95c0 1.3.4 2.38 1.2 3.24.8.86 1.8 1.29 3 1.29 1.12 0 2.09-.39 2.91-1.17.82-.8 1.23-1.78 1.23-2.94 0-1.22-.44-2.24-1.32-3.06-.88-.82-1.98-1.23-3.3-1.23-.62 0-1.38.19-2.28.57v-3.54l1.44-.36 1.26-.09zm9.46 5.61c0-1.56.56-2.88 1.68-3.96 1.12-1.1 2.47-1.65 4.05-1.65l.87.03v3.3h-.42c-.82 0-1.48.25-1.98.75-.48.48-.72 1.13-.72 1.95V28h-3.48v-9.36zm14.55-5.79c2.12 0 3.92.74 5.4 2.22 1.48 1.48 2.22 3.3 2.22 5.46 0 2.18-.74 4.02-2.22 5.52-1.48 1.48-3.3 2.22-5.46 2.22-2.08 0-3.87-.75-5.37-2.25-1.48-1.52-2.22-3.35-2.22-5.49 0-2.16.74-3.98 2.22-5.46 1.48-1.48 3.29-2.22 5.43-2.22zm-4.08 7.77c0 1.14.4 2.14 1.2 3 .82.86 1.78 1.29 2.88 1.29 1.06 0 2-.43 2.82-1.29.82-.86 1.23-1.88 1.23-3.06 0-1.16-.4-2.17-1.2-3.03-.8-.86-1.75-1.29-2.85-1.29-1.12 0-2.08.43-2.88 1.29-.8.86-1.2 1.89-1.2 3.09zm12.597 4.29c1.36 0 2.45-.39 3.27-1.17.4-.4.7-.85.9-1.35.2-.5.3-1.09.3-1.77 0-1.22-.4-2.21-1.2-2.97-.78-.78-1.87-1.17-3.27-1.17v-3.39c1.48 0 2.69.23 3.63.69.94.46 1.83 1.26 2.67 2.4.82-1.08 1.71-1.86 2.67-2.34.96-.5 2.16-.75 3.6-.75v3.39c-1.46 0-2.57.37-3.33 1.11-.76.74-1.14 1.77-1.14 3.09 0 1.26.39 2.28 1.17 3.06.8.78 1.9 1.17 3.3 1.17v3.27l-.93-.09c-1.12-.12-2.04-.34-2.76-.66-.7-.32-1.21-.61-1.53-.87-.3-.26-.65-.69-1.05-1.29-.44.66-.89 1.16-1.35 1.5-.46.34-1.13.66-2.01.96-.86.3-1.84.45-2.94.45v-3.27zm21.132-12.06c2.12 0 3.92.74 5.4 2.22 1.48 1.48 2.22 3.3 2.22 5.46 0 2.18-.74 4.02-2.22 5.52-1.48 1.48-3.3 2.22-5.46 2.22-2.08 0-3.87-.75-5.37-2.25-1.48-1.52-2.22-3.35-2.22-5.49 0-2.16.74-3.98 2.22-5.46 1.48-1.48 3.29-2.22 5.43-2.22zm-4.08 7.77c0 1.14.4 2.14 1.2 3 .82.86 1.78 1.29 2.88 1.29 1.06 0 2-.43 2.82-1.29.82-.86 1.23-1.88 1.23-3.06 0-1.16-.4-2.17-1.2-3.03-.8-.86-1.75-1.29-2.85-1.29-1.12 0-2.08.43-2.88 1.29-.8.86-1.2 1.89-1.2 3.09zM71.746 6.37h3.48V28h-3.48V6.37zm12.822 6.48c2.12 0 3.92.74 5.4 2.22 1.48 1.48 2.22 3.3 2.22 5.46 0 2.18-.74 4.02-2.22 5.52-1.48 1.48-3.3 2.22-5.46 2.22-2.08 0-3.87-.75-5.37-2.25-1.48-1.52-2.22-3.35-2.22-5.49 0-2.16.74-3.98 2.22-5.46 1.48-1.48 3.29-2.22 5.43-2.22zm-4.08 7.77c0 1.14.4 2.14 1.2 3 .82.86 1.78 1.29 2.88 1.29 1.06 0 2-.43 2.82-1.29.82-.86 1.23-1.88 1.23-3.06 0-1.16-.4-2.17-1.2-3.03-.8-.86-1.75-1.29-2.85-1.29-1.12 0-2.08.43-2.88 1.29-.8.86-1.2 1.89-1.2 3.09zm20.396 7.53c-2.22 0-4.04-.67-5.46-2.01-1.4-1.34-2.1-3.1-2.1-5.28 0-2.26.75-4.16 2.25-5.7 1.52-1.54 3.4-2.31 5.64-2.31 2.2 0 4.01.75 5.43 2.25 1.42 1.48 2.13 3.39 2.13 5.73v5.94c0 2.38-.81 4.3-2.43 5.76-1.6 1.46-3.69 2.19-6.27 2.19l-1.47-.09-1.86-.48v-3.39l1.65.48 1.26.12c1.78 0 3.14-.4 4.08-1.2.96-.8 1.44-1.96 1.44-3.48V20.8c0-1.28-.4-2.35-1.2-3.21-.8-.86-1.79-1.29-2.97-1.29-1.14 0-2.11.4-2.91 1.2-.8.8-1.2 1.8-1.2 3 0 1.28.42 2.33 1.26 3.15.86.8 1.96 1.2 3.3 1.2.5 0 .84-.02 1.02-.06.2-.06.43-.14.69-.24.26-.12.56-.26.9-.42v3.48l-1.65.42-1.53.12zm12.429-14.88l1.74 9.63c.18 1.24.75 1.86 1.71 1.86.88 0 1.47-.63 1.77-1.89l1.77-9.6h3.54l-2.04 10.74c-.36 1.86-1.44 3.14-3.24 3.84v6.57h-3.51v-6.57c-1.78-.54-2.88-1.84-3.3-3.9l-2.01-10.68h3.57zm20.249-6.9h3.48V28h-3.48V6.37zm5.712 6.9h3.51V28h-3.51V13.27zm1.74-7.17c.64 0 1.18.23 1.62.69.46.42.69.96.69 1.62 0 .64-.22 1.18-.66 1.62-.44.44-.99.66-1.65.66-.62 0-1.16-.21-1.62-.63-.46-.44-.69-.99-.69-1.65 0-.66.22-1.21.66-1.65.44-.44.99-.66 1.65-.66zm4.003 12.72c0-1.64.55-3.02 1.65-4.14 1.12-1.14 2.51-1.71 4.17-1.71 1.56 0 2.92.58 4.08 1.74 1.28-1.16 2.68-1.74 4.2-1.74 1.58 0 2.93.57 4.05 1.71 1.12 1.12 1.68 2.5 1.68 4.14V28h-3.45v-9.15c0-.72-.22-1.31-.66-1.77-.42-.46-1-.69-1.74-.69-.72 0-1.29.22-1.71.66-.42.42-.63 1.01-.63 1.77V28h-3.45v-9.18c0-.7-.21-1.29-.63-1.77-.44-.44-1-.66-1.68-.66-.72 0-1.3.22-1.74.66-.44.44-.66 1.04-.66 1.8V28h-3.48v-9.18zm22.089-5.55h3.51V28h-3.51V13.27zm1.74-7.17c.64 0 1.18.23 1.62.69.46.42.69.96.69 1.62 0 .64-.22 1.18-.66 1.62-.44.44-.99.66-1.65.66-.62 0-1.16-.21-1.62-.63-.46-.44-.69-.99-.69-1.65 0-.66.22-1.21.66-1.65.44-.44.99-.66 1.65-.66zm9.553 21.99c-1.62 0-2.95-.51-3.99-1.53s-1.56-2.37-1.56-4.05V9.13h3.48v4.14h2.76v3.21h-2.76v6.06c0 .7.22 1.27.66 1.71.44.44 1.02.66 1.74.66l.36-.03v3.18l-.69.03zm8.913-15.24c2.12 0 3.92.74 5.4 2.22 1.48 1.48 2.22 3.3 2.22 5.46 0 2.18-.74 4.02-2.22 5.52-1.48 1.48-3.3 2.22-5.46 2.22-2.08 0-3.87-.75-5.37-2.25-1.48-1.52-2.22-3.35-2.22-5.49 0-2.16.74-3.98 2.22-5.46 1.48-1.48 3.29-2.22 5.43-2.22zm-4.08 7.77c0 1.14.4 2.14 1.2 3 .82.86 1.78 1.29 2.88 1.29 1.06 0 2-.43 2.82-1.29.82-.86 1.23-1.88 1.23-3.06 0-1.16-.4-2.17-1.2-3.03-.8-.86-1.75-1.29-2.85-1.29-1.12 0-2.08.43-2.88 1.29-.8.86-1.2 1.89-1.2 3.09zm23.216-3.6l-1.26-.45-.99-.12c-1.34 0-2.45.41-3.33 1.23-.86.8-1.29 1.82-1.29 3.06 0 1.14.4 2.11 1.2 2.91.8.8 1.78 1.2 2.94 1.2 1.2 0 2.2-.43 3-1.29.8-.86 1.2-1.94 1.2-3.24V6.37h3.51v14.04c0 2.34-.7 4.24-2.1 5.7-1.4 1.46-3.24 2.19-5.52 2.19-2.3 0-4.17-.71-5.61-2.13-1.42-1.42-2.13-3.26-2.13-5.52 0-2.22.72-4.04 2.16-5.46 1.46-1.44 3.31-2.16 5.55-2.16l1.17.09 1.5.36v3.54z" fill="#fff"/><path d="M193.615 26.958l2.3-5.949h-5.144l-3.395 1.986-.018 6.852 6.257-2.89zM38.29 28.205l2.299-5.948h-5.144l-3.395 1.985-.018 6.853 6.257-2.89z" fill="#18153A"/><circle cx="32.855" cy="20.511" r="2.5" fill="#7C00D9"/><circle cx="187.379" cy="20.462" r="2.5" fill="#7C00D9"/></svg>