<svg width="50" height="50" fill="none" xmlns="http://www.w3.org/2000/svg"><path d="M25 0C11.234 0 0 11.235 0 25c0 13.766 11.235 25 25 25 13.766 0 25-11.235 25-25C50 11.234 38.765 0 25 0zm-7.457 4.228c-1.715 2.18-2.962 4.876-3.824 7.49H7.385a22.166 22.166 0 0110.158-7.49zm-12.03 10.41h7.377c-.663 2.778-1.054 5.793-1.148 8.897H2.98a21.946 21.946 0 012.534-8.896zm0 20.714a21.902 21.902 0 01-2.534-8.887h8.763c.094 3.104.485 6.11 1.148 8.887H5.513zm1.872 2.93h6.334c.862 2.613 2.108 5.31 3.824 7.49a22.166 22.166 0 01-10.158-7.49zm16.15 8.54c-3.27-1.1-5.525-5.299-6.717-8.54h6.717v8.54zm0-11.47h-7.628c-.712-2.739-1.134-5.75-1.234-8.887h8.862v8.887zm0-11.817h-8.862c.1-3.137.522-6.148 1.234-8.887h7.628v8.887zm0-11.816h-6.717c1.192-3.242 3.447-7.442 6.717-8.54v8.54zm20.952 2.93a21.902 21.902 0 012.533 8.886h-8.762c-.094-3.104-.486-6.11-1.148-8.887h7.377zm-1.872-2.93h-6.334c-.862-2.614-2.108-5.31-3.824-7.491a22.166 22.166 0 0110.158 7.49zm-16.15-8.54c3.27 1.098 5.525 5.298 6.717 8.54h-6.717v-8.54zm0 11.47h7.628c.712 2.738 1.134 5.75 1.234 8.886h-8.862v-8.887zm0 11.806h8.862c-.1 3.137-.522 6.16-1.234 8.897h-7.628v-8.897zm0 20.366v-8.55h6.717c-1.192 3.243-3.447 7.452-6.717 8.55zm5.992-1.048c1.715-2.181 2.962-4.887 3.824-7.502h6.334a22.186 22.186 0 01-10.158 7.502zm12.03-10.421H37.11c.663-2.778 1.054-5.792 1.148-8.897h8.762a21.947 21.947 0 01-2.533 8.897z" fill="#5669A9"/></svg>