<svg width="59" height="50" fill="none" xmlns="http://www.w3.org/2000/svg"><g clip-path="url(#clip0)" fill="#5669A9"><path d="M50.357 26.431h-5.775a8.42 8.42 0 00-2.271.312c-1.43-2.87-4.346-4.843-7.707-4.843H24.395c-3.361 0-6.278 1.973-7.707 4.843a8.467 8.467 0 00-2.271-.312H8.643C3.878 26.431 0 30.393 0 35.264V44.7C0 47.622 2.327 50 5.186 50h48.629C56.672 50 59 47.622 59 44.7v-9.436c0-4.87-3.877-8.833-8.643-8.833zm-34.603 4.302v15.734H5.186c-.953 0-1.729-.793-1.729-1.767v-9.436c0-2.922 2.327-5.3 5.186-5.3h5.775c.47 0 .923.065 1.356.185a9.02 9.02 0 00-.02.584zM39.79 46.467H19.21V30.733c0-2.922 2.327-5.3 5.186-5.3h10.209c2.859 0 5.185 2.378 5.185 5.3v15.734zM55.543 44.7c0 .974-.776 1.767-1.728 1.767h-10.57V30.733a8.96 8.96 0 00-.02-.584 5.06 5.06 0 011.356-.185h5.775c2.86 0 5.186 2.378 5.186 5.3V44.7z"/><path d="M11.53 9.748c-4.235 0-7.68 3.522-7.68 7.85 0 4.328 3.445 7.85 7.68 7.85 4.235 0 7.68-3.522 7.68-7.85 0-4.328-3.445-7.85-7.68-7.85zm0 12.166c-2.329 0-4.223-1.936-4.223-4.316S9.2 13.28 11.53 13.28c2.329 0 4.223 1.937 4.223 4.317s-1.894 4.316-4.223 4.316zM29.5 0c-5.658 0-10.26 4.704-10.26 10.487 0 5.782 4.602 10.486 10.26 10.486 5.658 0 10.26-4.704 10.26-10.486C39.76 4.704 35.158 0 29.5 0zm0 17.44c-3.751 0-6.804-3.119-6.804-6.953 0-3.835 3.053-6.954 6.804-6.954 3.75 0 6.803 3.119 6.803 6.954 0 3.834-3.052 6.953-6.803 6.953zm17.97-7.692c-4.235 0-7.68 3.522-7.68 7.85 0 4.328 3.445 7.85 7.68 7.85 4.234 0 7.68-3.522 7.68-7.85 0-4.328-3.446-7.85-7.68-7.85zm0 12.166c-2.33 0-4.224-1.936-4.224-4.316s1.895-4.317 4.223-4.317c2.33 0 4.224 1.937 4.224 4.317s-1.895 4.316-4.224 4.316z"/></g><defs><clipPath id="clip0"><path fill="#fff" d="M0 0h59v50H0z"/></clipPath></defs></svg>