<svg width="50" height="53" fill="none" xmlns="http://www.w3.org/2000/svg"><g clip-path="url(#clip0)" fill="#5669A9"><path d="M47.589 27.186a1.576 1.576 0 010-1.373l1.944-4.044c1.082-2.252.225-4.936-1.952-6.11l-3.91-2.11a1.556 1.556 0 01-.793-1.11l-.764-4.433c-.426-2.47-2.67-4.128-5.11-3.777l-4.382.63a1.509 1.509 0 01-1.283-.424l-3.18-3.129a4.47 4.47 0 00-6.316 0l-3.18 3.13a1.513 1.513 0 01-1.284.425l-4.382-.63c-2.439-.352-4.684 1.307-5.11 3.776l-.764 4.433a1.552 1.552 0 01-.793 1.11l-3.909 2.11C.242 16.834-.615 19.518.467 21.77l1.943 4.043c.21.436.21.937 0 1.373L.467 31.23c-1.082 2.25-.225 4.935 1.953 6.11l3.91 2.109c.42.227.71.632.793 1.11l.764 4.434c.388 2.247 2.282 3.823 4.46 3.823.215 0 .432-.016.65-.047l4.382-.63a1.51 1.51 0 011.283.424l3.18 3.13A4.487 4.487 0 0025 53a4.488 4.488 0 003.157-1.308l3.18-3.129a1.513 1.513 0 011.284-.424l4.382.63c2.44.351 4.683-1.307 5.11-3.776l.764-4.434a1.55 1.55 0 01.794-1.11l3.909-2.11c2.177-1.175 3.034-3.858 1.952-6.11l-1.943-4.043zm-1.417 7.454l-3.909 2.11a4.587 4.587 0 00-2.345 3.282l-.764 4.433a1.533 1.533 0 01-1.729 1.277l-4.381-.63a4.462 4.462 0 00-3.794 1.254l-3.18 3.129c-.6.589-1.539.589-2.138 0l-3.18-3.13a4.467 4.467 0 00-3.795-1.253l-4.38.63a1.534 1.534 0 01-1.73-1.277l-.764-4.433a4.585 4.585 0 00-2.345-3.283l-3.91-2.11a1.57 1.57 0 01-.66-2.067l1.944-4.044a4.66 4.66 0 000-4.058l-1.944-4.044a1.57 1.57 0 01.66-2.067l3.91-2.11a4.584 4.584 0 002.345-3.282l.764-4.434a1.533 1.533 0 011.73-1.277l4.38.63a4.463 4.463 0 003.794-1.253l3.18-3.13a1.513 1.513 0 012.138 0l3.18 3.13a4.462 4.462 0 003.795 1.253l4.381-.63a1.534 1.534 0 011.73 1.277l.763 4.434a4.585 4.585 0 002.345 3.282l3.91 2.11a1.57 1.57 0 01.66 2.067l-1.944 4.043a4.66 4.66 0 000 4.058l1.944 4.043a1.573 1.573 0 01-.66 2.07z"/><path d="M35.98 15.332a1.484 1.484 0 00-2.125 0L14.021 35.506a1.546 1.546 0 000 2.162 1.486 1.486 0 002.124 0L35.98 17.494a1.548 1.548 0 000-2.162zm-16.992-2.587c-3.037 0-5.51 2.514-5.51 5.604 0 3.09 2.473 5.604 5.51 5.604 3.038 0 5.51-2.514 5.51-5.604 0-3.09-2.472-5.604-5.51-5.604zm0 8.15c-1.38 0-2.504-1.142-2.504-2.547 0-1.405 1.123-2.548 2.504-2.548 1.382 0 2.505 1.143 2.505 2.548s-1.123 2.547-2.505 2.547zm12.023 8.152c-3.038 0-5.51 2.514-5.51 5.604 0 3.09 2.472 5.604 5.51 5.604s5.51-2.514 5.51-5.604c0-3.09-2.472-5.604-5.51-5.604zm0 8.152c-1.381 0-2.505-1.143-2.505-2.548s1.124-2.547 2.505-2.547c1.381 0 2.505 1.142 2.505 2.547 0 1.405-1.124 2.548-2.505 2.548z"/></g><defs><clipPath id="clip0"><path fill="#fff" d="M0 0h50v53H0z"/></clipPath></defs></svg>