<svg width="50" height="50" fill="none" xmlns="http://www.w3.org/2000/svg"><path d="M32.908 29.415l-6.972-5.228v-10.65A1.934 1.934 0 0024 11.6a1.934 1.934 0 00-1.936 1.936v11.62c0 .61.286 1.185.774 1.548l7.746 5.81c.349.261.755.387 1.16.387a1.92 1.92 0 001.55-.776 1.933 1.933 0 00-.386-2.71z" fill="#5669A9"/><path d="M25 0C11.214 0 0 11.214 0 25s11.214 25 25 25 25-11.214 25-25S38.786 0 25 0zm0 46.127c-11.648 0-21.127-9.48-21.127-21.127 0-11.648 9.48-21.127 21.127-21.127 11.65 0 21.127 9.48 21.127 21.127 0 11.648-9.48 21.127-21.127 21.127z" fill="#5669A9"/></svg>