<svg width="50" height="50" fill="none" xmlns="http://www.w3.org/2000/svg"><path d="M49.023 3.906h-5.078v-.781A3.128 3.128 0 0040.82 0a3.129 3.129 0 00-3.125 3.125v.781h-4.297v-.781A3.128 3.128 0 0030.273 0a3.129 3.129 0 00-3.125 3.125v.781h-4.296v-.781A3.128 3.128 0 0019.727 0a3.128 3.128 0 00-3.125 3.125v.781h-4.297v-.781A3.128 3.128 0 009.18 0a3.128 3.128 0 00-3.125 3.125v.781H.977A.977.977 0 000 4.883v44.14c0 .54.438.977.977.977h48.046c.54 0 .977-.438.977-.977V4.883a.977.977 0 00-.977-.977zm-9.375-.781a1.173 1.173 0 012.344 0v4.297a1.173 1.173 0 01-2.344 0V3.125zm-10.546 0a1.173 1.173 0 012.343 0v4.297a1.173 1.173 0 01-2.343 0V3.125zm-10.547 0a1.173 1.173 0 012.343 0v4.297a1.173 1.173 0 01-2.343 0V3.125zm-10.547 0a1.173 1.173 0 012.344 0v4.297a1.173 1.173 0 01-2.344 0V3.125zM1.953 48.047v-31.25h18.652a.977.977 0 000-1.953H1.953V5.859h4.102v1.563a3.128 3.128 0 003.125 3.125 3.128 3.128 0 003.125-3.125V5.859h4.297v1.563a3.128 3.128 0 003.125 3.125 3.128 3.128 0 003.125-3.125V5.859h4.296v1.563a3.129 3.129 0 003.125 3.125 3.129 3.129 0 003.125-3.125V5.859h4.297v1.563a3.129 3.129 0 003.125 3.125 3.129 3.129 0 003.125-3.125V5.859h4.102v8.985H29.395a.977.977 0 000 1.953h18.652v31.25H1.953z" fill="#5669A9"/><path d="M43.555 20.313H6.445a.977.977 0 00-.976.976v22.266c0 .539.437.976.976.976h37.11a.976.976 0 00.976-.976V21.289a.977.977 0 00-.976-.977zM7.422 29.688h7.337v5.468H7.422v-5.468zm9.29 0h7.324v5.468h-7.324v-5.468zm7.324-1.954h-7.324v-5.468h7.324v5.468zm1.953-5.468h7.324v5.468H25.99v-5.468zm-1.953 14.843v5.47h-7.324v-5.47h7.324zm1.953 0h7.324v5.47H25.99v-5.47zm0-1.953v-5.468h7.324v5.468H25.99zm9.278-5.468h7.311v5.468h-7.311v-5.468zm7.311-1.954h-7.311v-5.468h7.311v5.468zm-27.82-5.468v5.468H7.423v-5.468h7.337zM7.423 37.109h7.337v5.47H7.422v-5.47zm27.845 5.47v-5.47h7.311v5.47h-7.311zM25 16.797a.984.984 0 00.69-.286.984.984 0 00.287-.69.984.984 0 00-.287-.691.984.984 0 00-.69-.286.984.984 0 00-.69.286.984.984 0 00-.287.69c0 .257.105.51.287.69a.984.984 0 00.69.287z" fill="#5669A9"/></svg>