<svg width="50" height="57" fill="none" xmlns="http://www.w3.org/2000/svg"><path d="M25 1C11.215 1 0 12.215 0 26c0 13.784 11.215 25 25 25s25-11.216 25-25C50 12.215 38.785 1 25 1zm0 45.833C13.513 46.833 4.167 37.487 4.167 26 4.167 14.513 13.513 5.167 25 5.167c11.487 0 20.833 9.346 20.833 20.833 0 11.487-9.346 20.833-20.833 20.833z" fill="#5669A9"/><path d="M27.498 13.041a7.363 7.363 0 00-.856-.301V9h-4.286v3.755c-2.041.612-3.809 2.073-4.72 4.16a7.326 7.326 0 00-.09 5.693c.737 1.847 2.156 3.299 4.043 4.108l4.168 1.673a3.177 3.177 0 01-.092 5.89c-.8.313-1.672.3-2.46-.04a3.179 3.179 0 01-1.918-2.925v-2.125L17 29.193l.001 2.125a7.428 7.428 0 004.502 6.824c.28.12.567.217.856.302V43h4.286v-4.57a7.421 7.421 0 004.719-4.166 7.329 7.329 0 00.09-5.691c-.737-1.846-2.156-3.298-4.041-4.108l-4.169-1.672A3.18 3.18 0 0121.57 18.6c.34-.78.968-1.385 1.767-1.699a3.223 3.223 0 012.46.039c1.147.493 1.917 1.572 1.917 2.684v2.125H32v-2.125c0-2.826-1.767-5.41-4.502-6.584z" fill="#5669A9"/></svg>