<svg width="60" height="50" fill="none" xmlns="http://www.w3.org/2000/svg"><path d="M59.837 30.455a1.204 1.204 0 00-.576-.512l-4.303-1.806 4.457-2.69a1.227 1.227 0 00-.154-2.17l-4.303-1.806 4.457-2.69c.388-.241.61-.688.567-1.151a1.21 1.21 0 00-.733-1.03L42.31 9.484 33.961 5.85a1.172 1.172 0 00-.426-.084L19.941.093a1.156 1.156 0 00-1.028.06L.695 10.65a1.227 1.227 0 00-.525 1.627c.135.273.364.483.643.59l4.398 1.867-4.516 2.581a1.228 1.228 0 00-.446 1.652c.128.232.326.413.564.518l4.398 1.866-4.492 2.582c-.602.262-.88.974-.624 1.59.133.322.395.567.718.676l4.398 1.854-4.492 2.582a1.228 1.228 0 00-.447 1.651c.129.232.327.414.565.518l15.286 6.654c.056.04.115.078.177.109l8.358 3.636 15.369 6.702c.346.15.74.124 1.064-.073l18.324-11.053c.563-.338.753-1.08.422-1.659a1.205 1.205 0 00-.576-.512l-4.303-1.806 4.457-2.69a1.226 1.226 0 00.422-1.656zm-3.685-5.881l-15.759 9.514-14.092-6.133V23.92l13.714 5.974a1.155 1.155 0 001.064-.072l11.313-6.823 3.76 1.575zm.047-6.678L40.393 27.41 27.59 21.835l14.423-9.877 14.186 5.938zm-40.656 18.7L3.946 31.543l3.984-2.29 7.625 3.32-.012 4.023zm0-6.665L3.946 24.877l3.984-2.315 7.625 3.32-.012 4.049zm0-6.666L3.946 18.223l3.984-2.29 7.625 3.32-.012 4.012zM3.946 11.558l15.629-9.005 11.337 4.763-14.281 9.768-12.685-5.526zm20.511 9.526a1.22 1.22 0 00-.52 1.006v18.179L17.92 37.65V19.12L33.584 8.418l5.828 2.424-14.955 10.24zm31.695 16.821l-15.759 9.502-14.092-6.132V37.25l13.714 5.914c.346.15.74.124 1.064-.072l11.313-6.824 3.76 1.636zm-15.759 2.836L26.301 34.61v-4.024l13.726 5.975c.346.15.74.124 1.064-.073l11.313-6.823 3.748 1.576-15.759 9.501z" fill="#5669A9"/></svg>