<svg width="18" height="18" fill="none" xmlns="http://www.w3.org/2000/svg"><path d="M9.322 18c1.376-.196 2.583-1.635 3.342-3.761a16.32 16.32 0 00-3.342-.395V18zm2.199-.338c.081-.024.162-.047.243-.074.068-.021.135-.045.202-.069.079-.027.158-.055.236-.085l.2-.08.228-.096.198-.09a8.237 8.237 0 00.63-.329c.064-.036.126-.073.188-.11l.209-.13a9.086 9.086 0 00.385-.261c.06-.043.12-.086.178-.13.064-.049.13-.1.195-.152.057-.046.114-.091.17-.138.065-.054.126-.11.189-.165.054-.049.11-.097.163-.146l.181-.176c.052-.052.104-.102.155-.155l.028-.03a10.792 10.792 0 00-2.204-.85 8.001 8.001 0 01-2.056 3.345l.078-.019c.07-.019.137-.04.204-.06zM18 9.322h-3.857a16.746 16.746 0 01-.65 4.46c.85.227 1.669.554 2.442.973A9.017 9.017 0 0018 9.322zm-8.678-.644H13.5a16.16 16.16 0 00-.634-4.301 16.908 16.908 0 01-3.544.423v3.878zm0-8.678v4.156a16.316 16.316 0 003.342-.395C11.905 1.635 10.698.196 9.322 0zm0 13.2a16.92 16.92 0 013.544.424c.404-1.399.617-2.846.634-4.302H9.322V13.2zm6.613-9.955c-.773.42-1.593.746-2.442.973.416 1.45.635 2.95.65 4.46H18a9.019 9.019 0 00-2.065-5.433zm-.435-.49l-.028-.03c-.05-.052-.103-.103-.155-.154-.06-.059-.12-.119-.181-.176-.053-.05-.108-.097-.163-.146-.063-.056-.125-.112-.189-.165-.056-.047-.113-.092-.17-.137a7.04 7.04 0 00-.196-.154 7.712 7.712 0 00-.96-.631 10.483 10.483 0 00-.216-.121c-.064-.032-.128-.067-.193-.1a7.287 7.287 0 00-.42-.198c-.077-.034-.154-.065-.23-.097a6.867 6.867 0 00-.436-.165 6.602 6.602 0 00-.446-.142 8.288 8.288 0 00-.202-.058l-.078-.02a8 8 0 012.056 3.346 10.787 10.787 0 002.207-.852zM0 8.678h3.857c.015-1.51.233-3.01.65-4.46a11.174 11.174 0 01-2.442-.973A9.018 9.018 0 000 8.678zM8.678 18v-4.156a16.315 16.315 0 00-3.342.395c.759 2.126 1.966 3.565 3.342 3.761zm0-8.678H4.5c.017 1.456.23 2.903.634 4.302a16.911 16.911 0 013.544-.424V9.322zm0-9.322C7.302.196 6.095 1.635 5.336 3.761a16.29 16.29 0 003.342.395V0zm0 4.8a16.907 16.907 0 01-3.544-.423 16.16 16.16 0 00-.634 4.3h4.178V4.8zM6.76.26c-.026.008-.052.013-.078.02-.068.018-.135.038-.203.058-.08.024-.161.047-.242.073a6.045 6.045 0 00-.203.07 9.425 9.425 0 00-.236.084 8.621 8.621 0 00-.2.08l-.229.097-.197.09a8.654 8.654 0 00-.819.44 6.891 6.891 0 00-.593.391c-.06.042-.119.085-.178.129l-.195.152c-.057.046-.114.091-.17.139-.065.053-.126.108-.188.163-.055.05-.11.097-.164.148-.062.057-.121.117-.18.175-.053.052-.106.103-.156.155l-.028.03c.701.363 1.44.649 2.204.85A7.992 7.992 0 016.76.261zM2.683 15.429c.06.059.119.118.18.176.054.05.109.097.164.146.062.056.125.111.189.165.055.046.112.091.169.137.064.052.128.104.197.154l.175.13a8.07 8.07 0 00.784.503l.216.12c.065.033.129.068.193.1a7.091 7.091 0 00.422.199c.076.034.153.064.23.097l.199.08c.078.03.157.057.236.085.067.023.134.047.202.069.08.026.16.05.244.073.066.02.134.04.201.058l.079.02a8.004 8.004 0 01-2.056-3.346c-.764.202-1.503.487-2.205.85l.028.03c.049.052.1.103.153.154zm-.618-.674c.773-.42 1.593-.746 2.442-.973a16.761 16.761 0 01-.65-4.46H0a9.025 9.025 0 002.065 5.434z" fill="#4C5388"/></svg>