<svg width="11" height="20" fill="none" xmlns="http://www.w3.org/2000/svg"><g clip-path="url(#clip0)" fill="#4C5388"><path d="M5.5 8.571c4.048 0 5.156-.844 5.156-3.928C10.656 1.44 7.641 0 5.5 0 3.36 0 .344 1.44.344 4.643.344 7.727 1.452 8.57 5.5 8.57zm0-7.142c2.673 0 4.469 1.661 4.469 3.214 0 2.313-1.253 3.214-4.469 3.214s-4.469-.9-4.469-3.214c0-1.553 1.796-3.214 4.47-3.214z"/><path d="M5.5 7.143c3.497 0 3.781-1.132 3.781-2.5 0-1.182-1.553-2.5-3.781-2.5s-3.781 1.318-3.781 2.5c0 1.368.284 2.5 3.781 2.5zm.566-2.634a1.727 1.727 0 011.737-.627.951.951 0 01.683.604c.19.566-.233 1.217-.962 1.48a1.74 1.74 0 01-.588.106 1.407 1.407 0 01-.366-.046.952.952 0 01-.683-.603 1.005 1.005 0 01.179-.914zm-3.553-.024a.952.952 0 01.683-.603 1.727 1.727 0 011.739.627c.203.253.27.597.177.912a.952.952 0 01-.683.603c-.12.032-.244.048-.368.047a1.747 1.747 0 01-.587-.107c-.728-.26-1.15-.912-.961-1.479zM0 12.857c0 2.357.602 3.571.86 3.571.117 0 .5-.428.721-1.782A36.737 36.737 0 01.57 9.607c-.267.507-.57 1.604-.57 3.25z"/><path d="M6.745 5.333a.956.956 0 00.556-.042c.39-.141.581-.437.536-.572a.281.281 0 00-.206-.146.733.733 0 00-.193-.024 1.08 1.08 0 00-.362.067.995.995 0 00-.463.324.3.3 0 00-.075.247c.044.079.12.133.207.146zM3.7 5.29c.177.07.37.085.555.043a.283.283 0 00.206-.145.3.3 0 00-.075-.247.997.997 0 00-.461-.325 1.085 1.085 0 00-.363-.066.742.742 0 00-.193.024.283.283 0 00-.206.146c-.045.133.146.43.536.57zm4.207 6.317a.526.526 0 01-.516.536.526.526 0 01-.516-.536c0-.296.23-.536.516-.536.285 0 .516.24.516.536zm2.523-2c-.22 1.7-.558 3.38-1.011 5.03.223 1.363.605 1.791.722 1.791.257 0 .859-1.214.859-3.57 0-1.648-.302-2.745-.57-3.25z"/><path d="M9.866 8.443c-.978.664-2.435.843-4.366.843-1.931 0-3.388-.179-4.366-.843.014.148.026.294.042.447.4 3.73 1.646 8.565 3.256 10.587A1.36 1.36 0 005.5 20a1.36 1.36 0 001.066-.523c1.608-2.022 2.856-6.858 3.258-10.588.015-.153.027-.3.042-.446zM7.39 12.857c-.664 0-1.203-.56-1.203-1.25s.539-1.25 1.203-1.25c.665 0 1.204.56 1.204 1.25s-.54 1.25-1.204 1.25z"/></g><defs><clipPath id="clip0"><path fill="#fff" d="M0 0h11v20H0z"/></clipPath></defs></svg>