<svg width="21" height="14" fill="none" xmlns="http://www.w3.org/2000/svg"><g clip-path="url(#clip0)" fill="#4C5388"><path d="M13.92 7.104l7.08 4.34V2.581l-7.08 4.523zM0 2.581v8.863l7.08-4.34L0 2.581zM19.688 0H1.313C.658 0 .138.473.04 1.083L10.5 7.766l10.46-6.683A1.283 1.283 0 0019.689 0zm-6.97 7.873l-1.857 1.186a.67.67 0 01-.722 0L8.282 7.871l-8.24 5.055A1.282 1.282 0 001.312 14h18.376c.652 0 1.169-.47 1.27-1.074l-8.24-5.053z"/></g><defs><clipPath id="clip0"><path fill="#fff" d="M0 0h21v14H0z"/></clipPath></defs></svg>