<svg width="10" height="18" fill="none" xmlns="http://www.w3.org/2000/svg"><path d="M10 4.69C10 2.104 7.757 0 5 0S0 2.104 0 4.69c0 2.23 1.67 4.103 3.9 4.575v7.703C3.9 17.537 4.392 18 5 18c.607 0 1.1-.463 1.1-1.032v-.332h1.483c.423 0 .767-.306.767-.683 0-.376-.344-.682-.767-.682h-.03c-.14 0-.255-.108-.255-.24v-.382c0-.133.114-.24.255-.24h.03c.423 0 .767-.306.767-.683 0-.376-.344-.683-.767-.683H6.101V9.264C8.33 8.794 10 6.921 10 4.69zM5 7.33c-1.554 0-2.814-1.182-2.814-2.64 0-1.458 1.26-2.64 2.814-2.64s2.814 1.182 2.814 2.64c0 1.458-1.26 2.64-2.814 2.64z" fill="#fff"/></svg>