<svg width="80" height="99" fill="none" xmlns="http://www.w3.org/2000/svg"><path d="M0 13C0 5.82 5.82 0 13 0h67v99H13C5.82 99 0 93.18 0 86V13z" fill="url(#paint0_linear)"/><path d="M49.251 50.64c-.61-.78-1.532-1.317-2.765-1.608 1.57-.792 2.26-2.136 2.07-4.032-.063-.688-.255-1.284-.576-1.789a3.603 3.603 0 00-1.304-1.219 7.23 7.23 0 00-1.786-.703 14.222 14.222 0 00-2.212-.351V37h-2.433v3.828c-.421 0-1.064.01-1.928.031V37h-2.434v3.938c-.348.01-.859.016-1.533.016L31 40.938V43.5h1.754c.8 0 1.27.354 1.406 1.062v4.485c.106 0 .19.005.253.016h-.253v6.281c-.084.53-.39.797-.916.797H31.49L31 59h3.16c.2 0 .49.003.87.007.378.006.663.008.852.008V63h2.434v-3.938c.443.011 1.085.016 1.928.016V63h2.434v-3.984c.864-.042 1.63-.12 2.299-.234a9.418 9.418 0 001.92-.54c.61-.245 1.122-.55 1.532-.914a4.313 4.313 0 001.02-1.39c.268-.563.44-1.215.513-1.954.138-1.448-.1-2.562-.71-3.343zm-10.887-6.969a111.062 111.062 0 001.478-.023 9.4 9.4 0 01.916.039c.385.031.709.073.972.125.264.052.554.138.87.257.315.12.568.266.757.438.19.171.35.39.483.656.131.265.197.57.197.914 0 .291-.047.557-.142.797-.095.24-.237.44-.427.602-.19.161-.385.302-.585.422-.2.12-.455.216-.767.289-.31.072-.581.13-.813.171a6.71 6.71 0 01-.869.086 37.84 37.84 0 01-.79.031c-.18.005-.424.005-.735 0a66.774 66.774 0 00-.546-.007l.001-4.797zm6.645 10.641c-.1.24-.23.449-.387.626a2.194 2.194 0 01-.624.468 5.414 5.414 0 01-.75.329 6.129 6.129 0 01-.877.219c-.343.062-.643.106-.902.133-.257.026-.566.047-.924.062a20.901 20.901 0 01-1.596.015 44.36 44.36 0 00-.585-.007v-5.282c.084 0 .334-.005.75-.016.417-.01.757-.015 1.02-.015s.627.015 1.09.047c.464.03.854.077 1.17.14.316.062.661.159 1.035.289.374.13.677.289.91.477.231.187.426.426.584.718.158.292.237.625.237 1-.001.292-.05.558-.151.797z" fill="url(#paint1_linear)"/><defs><linearGradient id="paint0_linear" x1="36.267" y1="-4.813" x2="63.024" y2="96.294" gradientUnits="userSpaceOnUse"><stop stop-color="#524E7B"/><stop offset="1" stop-color="#1D1B45"/></linearGradient><linearGradient id="paint1_linear" x1="40.5" y1="37" x2="40.5" y2="63" gradientUnits="userSpaceOnUse"><stop stop-color="#6B71FF"/><stop offset="1" stop-color="#6B71FF"/></linearGradient></defs></svg>