<svg width="80" height="99" fill="none" xmlns="http://www.w3.org/2000/svg"><path d="M0 13C0 5.82 5.82 0 13 0h67v99H13C5.82 99 0 93.18 0 86V13z" fill="url(#paint0_linear)"/><path d="M20.945 56.504l2.173-.354V38.955l-2.173-.33v-.52h7.416c2.33 0 4.063.496 5.196 1.488 1.134.992 1.7 2.425 1.7 4.298 0 1.874-.566 3.307-1.7 4.3-1.133.991-2.865 1.487-5.196 1.487h-2.645v6.472l2.173.354V57h-6.944v-.496zm7.085-7.393c2.913 0 4.37-1.582 4.37-4.747v-.945c0-3.15-1.456-4.724-4.37-4.724h-2.314v10.416h2.314zm18.886 8.125l-7.038-18.281v16.604l2.267.945V57h-5.054v-.496l2.22-.945V38.955l-2.173-.33v-.52h5.22l5.928 15.163 6.047-15.163h4.77v.52l-2.172.33V56.15l2.172.354V57H52.16v-.496l2.174-.354V39.664L47.34 57.236h-.425z" fill="#6B71FF"/><defs><linearGradient id="paint0_linear" x1="36.267" y1="-4.813" x2="63.024" y2="96.294" gradientUnits="userSpaceOnUse"><stop stop-color="#524E7B"/><stop offset="1" stop-color="#1D1B45"/></linearGradient></defs></svg>