<svg width="80" height="99" fill="none" xmlns="http://www.w3.org/2000/svg"><path d="M0 13C0 5.82 5.82 0 13 0h67v99H13C5.82 99 0 93.18 0 86V13z" fill="url(#paint0_linear)"/><g clip-path="url(#clip0)" filter="url(#filter0_d)"><path d="M40 52.508l-7.731-3.752L39.999 35l7.732 13.757L40 52.509z" fill="#6770FF"/><path d="M40 35v17.508l7.73-3.75L40 35z" fill="#636DF8"/><path d="M40 64.913L32 50.59l8 3.899 8-3.899-8 14.323z" fill="#6B71FF"/><path d="M40 45.228l-7.731 3.529 7.73 3.751 7.732-3.751L40 45.227z" fill="#6B71FF"/><path d="M47.73 48.757L40 45.227v7.282l7.73-3.752z" fill="#6B71FF"/><path d="M48 50.59l-8 3.899v10.424l8-14.323z" fill="#636DF8"/></g><defs><linearGradient id="paint0_linear" x1="36.267" y1="-4.813" x2="63.024" y2="96.294" gradientUnits="userSpaceOnUse"><stop stop-color="#524E7B"/><stop offset="1" stop-color="#1D1B45"/></linearGradient><clipPath id="clip0"><path fill="#fff" transform="translate(32 35)" d="M0 0h16v29.913H0z"/></clipPath><filter id="filter0_d" x="30.833" y="33.25" width="20.666" height="34.58" filterUnits="userSpaceOnUse" color-interpolation-filters="sRGB"><feFlood flood-opacity="0" result="BackgroundImageFix"/><feColorMatrix in="SourceAlpha" values="0 0 0 0 0 0 0 0 0 0 0 0 0 0 0 0 0 0 127 0"/><feOffset dx="1.167" dy=".583"/><feGaussianBlur stdDeviation="1.167"/><feColorMatrix values="0 0 0 0 0 0 0 0 0 0 0 0 0 0 0 0 0 0 0.25 0"/><feBlend in2="BackgroundImageFix" result="effect1_dropShadow"/><feBlend in="SourceGraphic" in2="effect1_dropShadow" result="shape"/></filter></defs></svg>