<svg width="29" height="29" fill="none" xmlns="http://www.w3.org/2000/svg"><g clip-path="url(#clip0)"><path d="M46.92 31H-1.143A.85.85 0 01-2 30.158V-.158A.85.85 0 01-1.142-1H46.92a.85.85 0 01.859.842v30.316a.852.852 0 01-.86.842z" fill="#F5F5F5"/><path d="M47.778 1.462H-2v-1.62A.85.85 0 01-1.142-1H46.92a.85.85 0 01.859.842l-.001 1.62zm0 7.385H-2v2.46h49.778v-2.46zm0-4.924H-2v2.461h49.778v-2.46zm0 12.308h-48.92A.85.85 0 01-2 15.39v-1.62h49.778v2.462zm0 7.385H-2v2.462h49.778v-2.462zM46.92 31H-1.143A.85.85 0 01-2 30.158v-1.62h49.778v1.62a.85.85 0 01-.859.842zm.858-12.308H-2v2.461h49.778v-2.46z" fill="#FF4B55"/><path d="M20.314-1H-1.142A.85.85 0 00-2-.158V15.39a.85.85 0 00.858.842h21.456a.85.85 0 00.859-.842V-.158A.85.85 0 0020.314-1z" fill="#41479B"/><path d="M.41.933l.19.559.6.004c.078.001.11.099.048.144l-.483.35.18.562c.024.072-.06.132-.124.088l-.488-.342-.488.342c-.063.044-.147-.016-.124-.088l.18-.562-.482-.35a.08.08 0 01.047-.144l.601-.004.19-.56C.28.86.385.86.41.933zm0 2.924l.19.56.6.004c.078.001.11.099.048.143l-.483.35.18.562c.024.073-.06.133-.124.089l-.488-.343-.488.342c-.063.044-.147-.016-.124-.089l.18-.56-.482-.35c-.063-.046-.03-.143.047-.144l.601-.005.19-.559c.024-.072.128-.072.153 0zm0 2.924l.19.56.6.004c.078.001.11.098.048.143l-.483.35.18.562c.024.073-.06.133-.124.089l-.488-.343-.488.343c-.063.044-.147-.016-.124-.089l.18-.562-.482-.35c-.063-.046-.03-.142.047-.143l.601-.005.19-.559c.024-.072.128-.072.153 0zm0 2.925l.19.56.6.004c.078 0 .11.098.048.143l-.483.35.18.562c.024.072-.06.133-.124.089l-.488-.344-.488.343c-.063.044-.147-.017-.124-.089l.18-.562-.482-.35c-.063-.046-.03-.142.047-.143l.601-.005.19-.559c.024-.071.128-.071.153.001zm0 2.924l.19.559.6.005c.078 0 .11.098.048.143l-.483.35.18.562c.024.072-.06.132-.124.088l-.488-.343-.488.342c-.063.044-.147-.016-.124-.088l.18-.562-.482-.35c-.063-.046-.03-.142.047-.143l.601-.005.19-.559c.024-.072.128-.072.153 0zM2.723 2.366l.19.56.6.004c.078.001.11.099.048.143l-.483.35.18.562c.024.073-.06.133-.124.089l-.489-.342-.489.342c-.063.044-.147-.016-.124-.089l.18-.562-.482-.35c-.063-.045-.03-.142.047-.143l.601-.005.192-.559c.025-.072.129-.072.153 0zm0 2.925l.19.56.6.004c.078.001.11.098.048.143l-.483.35.18.562c.024.073-.06.133-.124.089l-.489-.343L2.156 7c-.063.044-.147-.015-.124-.089l.18-.562-.482-.35c-.063-.046-.03-.142.047-.143l.601-.005.192-.559c.025-.072.129-.072.153 0zm0 2.924l.19.56.6.004c.078 0 .11.098.048.143l-.483.35.18.562c.024.072-.06.133-.124.089l-.489-.343-.489.343c-.063.044-.147-.017-.124-.09l.18-.561-.482-.35c-.063-.046-.03-.142.047-.143l.601-.005.192-.559c.025-.072.129-.072.153 0zm0 2.924l.19.559.6.005c.078 0 .11.098.048.143l-.483.35.18.562c.024.072-.06.132-.124.089l-.489-.343-.489.343c-.063.043-.147-.017-.124-.09l.18-.561-.482-.35c-.063-.046-.03-.142.047-.143l.601-.005.19-.56c.027-.07.13-.07.155 0zM5.037.933l.19.559.6.004c.078.001.11.099.048.144l-.483.35.18.562c.024.072-.06.132-.124.088l-.489-.342-.489.342c-.063.044-.147-.016-.124-.088l.18-.562-.482-.35a.08.08 0 01.047-.144l.601-.004.19-.56c.026-.072.13-.072.155 0zm0 2.924l.19.56.6.004c.078.001.11.099.048.143l-.483.35.18.562c.024.073-.06.133-.124.089l-.49-.342-.488.342c-.063.044-.148-.016-.125-.089l.183-.562-.483-.35c-.062-.045-.03-.142.048-.143l.6-.005.19-.559c.024-.072.128-.072.154 0zm0 2.924l.19.56.6.004c.078.001.11.098.048.143l-.483.35.18.562c.024.073-.06.133-.124.089l-.489-.343-.489.343c-.063.044-.147-.016-.124-.089l.18-.562-.482-.35c-.063-.046-.03-.142.047-.143l.601-.005.19-.559c.026-.072.13-.072.155 0zm0 2.925l.19.56.6.004c.078 0 .11.098.048.143l-.483.35.18.562c.024.072-.06.133-.124.089l-.489-.343-.489.343c-.063.043-.147-.017-.124-.09l.18-.56-.482-.351c-.063-.046-.03-.142.047-.143l.601-.005.19-.559c.026-.072.13-.072.155 0zm0 2.924l.19.559.6.005c.078 0 .11.098.048.143l-.483.35.18.562c.024.072-.06.132-.124.088l-.489-.342-.489.343c-.063.043-.147-.017-.124-.09l.18-.561-.482-.35c-.063-.046-.03-.142.047-.143l.601-.005.19-.56c.026-.072.13-.072.155 0zM7.35 2.366l.19.56.6.004c.078.001.11.099.048.143l-.483.35.18.562c.024.073-.06.133-.124.089l-.489-.342-.489.342c-.063.044-.147-.016-.124-.089l.18-.562-.482-.35c-.063-.045-.03-.142.047-.143l.601-.005.19-.559c.026-.072.13-.072.155 0zm0 2.925l.19.56.6.004c.078.001.11.098.048.143l-.483.35.18.562c.024.073-.06.133-.124.089l-.489-.343L6.783 7c-.063.044-.147-.015-.124-.089l.18-.562-.482-.35c-.063-.046-.03-.142.047-.143l.601-.005.19-.559c.026-.072.13-.072.155 0zm0 2.924l.19.56.6.004c.078 0 .11.098.048.143l-.483.35.18.562c.024.072-.06.133-.124.089l-.489-.343-.489.343c-.063.044-.147-.017-.124-.09l.18-.561-.482-.35c-.063-.046-.03-.142.047-.143l.601-.005.19-.559c.026-.072.13-.072.155 0zm0 2.924l.19.559.6.005c.078 0 .11.098.048.143l-.483.35.18.562c.024.072-.06.132-.124.089l-.489-.343-.489.343c-.063.043-.147-.017-.124-.09l.18-.561-.482-.35c-.063-.046-.03-.142.047-.143l.601-.005.19-.56c.026-.07.13-.07.155 0zM9.663.933l.19.559.6.004c.078.001.11.099.048.144l-.483.35.18.562c.024.072-.06.132-.124.088l-.49-.342-.488.342c-.063.044-.148-.016-.125-.088l.181-.562-.483-.35a.08.08 0 01.048-.144l.6-.004.19-.56c.027-.072.131-.072.156 0zm0 2.924l.19.56.6.004c.078.001.11.099.048.143l-.483.35.18.562c.024.073-.06.133-.124.089l-.49-.342-.488.342c-.063.044-.148-.016-.125-.089l.181-.562-.483-.35c-.062-.045-.03-.142.048-.143l.6-.005.19-.559c.027-.072.131-.072.156 0zm0 2.924l.19.56.6.004c.078.001.11.098.048.143l-.483.35.18.562c.024.073-.06.133-.124.089l-.49-.343-.488.343c-.063.044-.148-.016-.125-.089l.181-.562-.483-.35c-.062-.046-.03-.142.048-.143l.6-.005.19-.559c.027-.072.131-.072.156 0zm0 2.925l.19.56.6.004c.078 0 .11.098.048.143l-.483.35.18.562c.024.072-.06.133-.124.089l-.49-.343-.488.343c-.063.043-.148-.017-.125-.09l.181-.56-.483-.351c-.062-.046-.03-.142.048-.143l.6-.005.19-.559c.027-.072.131-.072.156 0zm0 2.924l.19.559.6.005c.078 0 .11.098.048.143l-.483.35.18.562c.024.072-.06.132-.124.088l-.49-.342-.488.343c-.063.043-.148-.017-.125-.09l.181-.561-.483-.35c-.062-.046-.03-.142.048-.143l.6-.005.19-.56c.027-.072.131-.072.156 0zm2.313-10.264l.19.56.6.004c.078.001.11.099.048.143l-.483.35.18.562c.024.073-.06.133-.124.089l-.488-.342-.488.342c-.063.044-.147-.016-.124-.089l.18-.562-.482-.35c-.063-.045-.03-.142.047-.143l.6-.005.19-.559c.025-.072.129-.072.154 0zm0 2.925l.19.56.6.004c.078.001.11.098.048.143l-.483.35.18.562c.024.073-.06.133-.124.089l-.488-.343-.488.343c-.063.044-.147-.015-.124-.089l.18-.562-.482-.35c-.063-.046-.03-.142.047-.143l.6-.005.19-.559c.025-.072.129-.072.154 0zm0 2.924l.19.56.6.004c.078 0 .11.098.048.143l-.483.35.18.562c.024.072-.06.133-.124.089L11.9 9.58l-.488.343c-.063.044-.147-.017-.124-.09l.18-.561-.482-.35c-.063-.046-.03-.142.047-.143l.6-.005.19-.559c.025-.072.129-.072.154 0zm0 2.924l.19.559.6.005c.078 0 .11.098.048.143l-.483.35.18.562c.024.072-.06.132-.124.089l-.488-.343-.488.343c-.063.043-.147-.017-.124-.09l.18-.561-.482-.35c-.063-.046-.03-.142.047-.143l.6-.005.19-.56c.025-.07.129-.07.154 0zM14.29.933l.19.559.6.004c.078.001.11.099.048.144l-.483.35.18.562c.024.072-.06.132-.124.088l-.488-.342-.488.342c-.063.044-.148-.016-.125-.088l.181-.562-.483-.35a.08.08 0 01.048-.144l.6-.004.19-.56c.024-.072.13-.072.154 0zm0 2.924l.19.56.6.004c.078.001.11.099.048.143l-.483.35.18.562c.024.073-.06.133-.124.089l-.488-.342-.488.342c-.063.044-.148-.016-.125-.089l.181-.562-.483-.35c-.062-.045-.03-.142.048-.143l.6-.005.19-.559c.024-.072.13-.072.154 0zm0 2.924l.19.56.6.004c.078.001.11.098.048.143l-.483.35.18.562c.024.073-.06.133-.124.089l-.488-.343-.488.343c-.063.044-.148-.016-.125-.089l.181-.562-.483-.35c-.062-.046-.03-.142.048-.143l.6-.005.19-.559c.024-.072.13-.072.154 0zm0 2.925l.19.56.6.004c.078 0 .11.098.048.143l-.483.35.18.562c.024.072-.06.133-.124.089l-.488-.343-.488.343c-.063.043-.148-.017-.125-.09l.181-.56-.483-.351c-.062-.046-.03-.142.048-.143l.6-.005.19-.559c.024-.072.13-.072.154 0zm0 2.924l.19.559.6.005c.078 0 .11.098.048.143l-.483.35.18.562c.024.072-.06.132-.124.088l-.488-.342-.488.343c-.063.043-.148-.017-.125-.09l.181-.561-.483-.35c-.062-.046-.03-.142.048-.143l.6-.005.19-.56c.024-.072.13-.072.154 0zm2.313-10.264l.19.56.6.004c.078.001.11.099.048.143l-.483.35.18.562c.024.073-.061.133-.124.089l-.488-.342-.488.342c-.063.044-.148-.016-.125-.089l.181-.562-.483-.35c-.062-.045-.03-.142.048-.143l.6-.005.19-.559c.025-.072.13-.072.154 0zm0 2.925l.19.56.6.004c.078.001.11.098.048.143l-.483.35.18.562c.024.073-.061.133-.124.089l-.488-.343-.488.343c-.063.044-.148-.015-.125-.089l.181-.562-.483-.35c-.062-.046-.03-.142.048-.143l.6-.005.19-.559c.025-.072.13-.072.154 0zm0 2.924l.19.56.6.004c.078 0 .11.098.048.143l-.483.35.18.562c.024.072-.061.133-.124.089l-.488-.343-.488.343c-.063.044-.148-.017-.125-.09l.181-.561-.483-.35c-.062-.046-.03-.142.048-.143l.6-.005.19-.559c.025-.072.13-.072.154 0zm0 2.924l.19.559.6.005c.078 0 .11.098.048.143l-.483.35.18.562c.024.072-.061.132-.124.089l-.488-.343-.488.343c-.063.043-.148-.017-.125-.09l.181-.561-.483-.35c-.062-.046-.03-.142.048-.143l.6-.005.19-.56c.025-.07.13-.07.154 0zM18.917.933l.19.559.6.004c.078.001.11.099.048.144l-.484.35.181.562c.024.072-.061.132-.124.088l-.488-.342-.488.342c-.064.044-.148-.016-.125-.088l.181-.562-.483-.35a.08.08 0 01.047-.144l.601-.004.19-.56c.024-.072.128-.072.154 0zm0 2.924l.19.56.6.004c.078.001.11.099.048.143l-.484.35.181.562c.024.073-.061.133-.124.089l-.488-.342-.488.342c-.064.044-.148-.016-.125-.089l.181-.562-.483-.35c-.062-.045-.03-.142.047-.143l.601-.005.19-.559c.024-.072.128-.072.154 0zm0 2.924l.19.56.6.004c.078.001.11.098.048.143l-.484.35.181.562c.024.073-.061.133-.124.089l-.488-.343-.488.343c-.064.044-.148-.016-.125-.089l.181-.562-.483-.35a.08.08 0 01.047-.143l.601-.005.19-.559c.024-.072.128-.072.154 0zm0 2.925l.19.56.6.004c.078 0 .11.098.048.143l-.484.35.181.562c.024.072-.061.133-.124.089l-.488-.343-.488.343c-.064.043-.148-.017-.125-.09l.181-.56-.483-.351a.08.08 0 01.047-.143l.601-.005.19-.559c.024-.072.128-.072.154 0zm0 2.924l.19.559.6.005c.078 0 .11.098.048.143l-.484.35.181.562c.024.072-.061.132-.124.088l-.488-.342-.488.343c-.064.043-.148-.017-.125-.09l.181-.561-.483-.35a.08.08 0 01.047-.143l.601-.005.19-.56c.024-.072.128-.072.154 0z" fill="#F5F5F5"/></g><defs><clipPath id="clip0"><path fill="#fff" transform="translate(-2 -1)" d="M0 0h49.778v32H0z"/></clipPath></defs></svg>